<svg xmlns="http://www.w3.org/2000/svg" viewBox="0 0 400 400">
  <title>basket</title>
  <g>
    <g>
      <line x1="166.6" y1="134.9" x2="178.6" y2="296.8" fill="none"/>
      <line x1="239.5" y1="134.5" x2="228.3" y2="296.8" fill="none"/>
      <path d="M295.9,198.8H105.4a2.9,2.9,0,1,1,0-5.8H295.8a2.9,2.9,0,0,1,2.9,2.9A2.82,2.82,0,0,1,295.9,198.8Z" fill="#303d4c"/>
      <path d="M287.6,245.5H112.8a2.9,2.9,0,1,1,0-5.8H287.7a2.9,2.9,0,0,1,2.9,2.9A3,3,0,0,1,287.6,245.5Z" fill="#303d4c"/>
      <g>
        <path d="M314.2,147.7h-1l-23,122.9c-3.4,18.9-19.5,33.2-37.6,33.2H145.4c-16.5,0-31.6-13.6-34.3-31.1l-21.2-125H87.8a12.09,12.09,0,0,1-3.8-.6l21.4,126.5c3.2,20.1,20.7,35.9,40,35.9H252.6c20.8,0,39.4-16.3,43.3-37.9l23.4-125A11.16,11.16,0,0,1,314.2,147.7Z" fill="#303d4c"/>
        <path d="M314.2,150.6H87.8a16.1,16.1,0,1,1,0-32.2H314.2a16.1,16.1,0,1,1,0,32.2ZM87.8,124.1a10.4,10.4,0,1,0,0,20.8H314.2a10.4,10.4,0,0,0,0-20.8Z" fill="#303d4c"/>
      </g>
    </g>
    <rect width="400" height="400" fill="none"/>
    <path d="M301.6,147.7l-21,118A34,34,0,0,1,247,293.8H150.3a30.9,30.9,0,0,1-30.7-26.2l-19-120H94.8l19.1,120.9a36.53,36.53,0,0,0,36.4,31H247a39.82,39.82,0,0,0,39.3-32.9l21.2-119.1h-5.9Z" fill="#303d4c"/>
    <path d="M164.7,147.7l11,149.3a2.94,2.94,0,0,0,2.9,2.7h.2a2.91,2.91,0,0,0,2.7-3.1l-11-148.8h-5.8Z" fill="#303d4c"/>
    <path d="M235.7,147.7,225.4,296.5a2.91,2.91,0,0,0,2.7,3.1h.2a2.94,2.94,0,0,0,2.9-2.7l10.3-149.2Z" fill="#303d4c"/>
  </g>
</svg>
