<svg xmlns="http://www.w3.org/2000/svg" viewBox="0 0 400 400">
  <title>bath-towel</title>
  <g>
    <g>
      <path d="M110.8,112.3H81.7a3.5,3.5,0,1,0,0,7h27.9A26.3,26.3,0,0,1,110.8,112.3Z" fill="#01b6ad"/>
      <path d="M317.6,112.3H267.7a26.26,26.26,0,0,1,1.2,6.9h48.7a3.45,3.45,0,1,0,0-6.9Z" fill="#01b6ad"/>
    </g>
    <path d="M291.8,114.5a2.9,2.9,0,0,1-2.9-2.9,18,18,0,0,0-18-17.9H130.4a18,18,0,0,0-18,17.9,2.9,2.9,0,0,1-5.8,0,23.77,23.77,0,0,1,23.8-23.7H271a23.77,23.77,0,0,1,23.8,23.7A3.06,3.06,0,0,1,291.8,114.5Z" fill="#01b6ad"/>
    <path d="M268.5,114.1h-.2a2.77,2.77,0,0,1-2.6-3.1c.1-.7,1.5-17,13.7-20.8a2.88,2.88,0,0,1,1.7,5.5c-8.6,2.6-9.7,15.6-9.7,15.8A2.85,2.85,0,0,1,268.5,114.1Z" fill="#01b6ad"/>
    <path d="M268.5,285.5H109.2a2.9,2.9,0,0,1-2.9-2.9V252.8a2.9,2.9,0,0,1,2.9-2.9H268.5a2.9,2.9,0,0,1,2.9,2.9v29.8A2.84,2.84,0,0,1,268.5,285.5Zm-156.4-5.7H265.7V255.7H112.1Z" fill="#01b6ad"/>
    <path d="M289.6,116.1v93c0,11.4-9.7,20.8-20.7,22v5.8c14.3-1.2,26.5-13.2,26.5-27.7v-93" fill="#01b6ad"/>
    <rect width="400" height="400" fill="none"/>
    <g>
      <path d="M130.4,90.8H252.3a33.2,33.2,0,0,0-13.4-2.9H139.6a32.4,32.4,0,0,0-15.5,3.9A18.9,18.9,0,0,1,130.4,90.8Z" fill="#01b6ad"/>
      <path d="M265.7,111.6c.2,2.7.3,5.7.3,9.1V291.3a27.19,27.19,0,0,1-27.1,27.1H139.6a27.06,27.06,0,0,1-27.1-27.1V111.6h-2.9a21.85,21.85,0,0,1,1-6.3,32.3,32.3,0,0,0-3.9,15.4V291.3a32.9,32.9,0,0,0,32.9,32.8h99.3a32.9,32.9,0,0,0,32.9-32.8V120.7a33.91,33.91,0,0,0-1.3-9.1Z" fill="#01b6ad"/>
    </g>
  </g>
</svg>
