<svg xmlns="http://www.w3.org/2000/svg" viewBox="0 0 400 400">
  <title>desk-lamp</title>
  <g>
    <path d="M248,173.9a19.83,19.83,0,0,1-14.1-5.8A2.9,2.9,0,0,1,238,164a14.18,14.18,0,0,0,20,0,13.9,13.9,0,0,0,4.1-10,14.32,14.32,0,0,0-4.1-10,2.9,2.9,0,1,1,4.1-4.1,19.34,19.34,0,0,1,5.8,14,19.75,19.75,0,0,1-5.8,14A19.23,19.23,0,0,1,248,173.9Z" fill="#01b6ad"/>
    <path d="M288.1,309.7a2.59,2.59,0,0,0-1.1-2.5l-.3-.3-34.1-34a3.21,3.21,0,0,0-2.2-1h-18v-5.1a3.2,3.2,0,1,0-6.4,0v5.1H210l-49.5-60,.8-2c.3-.7,2.6-7.2.7-11.9l-.9-2.3,32-31.9,13,28.4a2.92,2.92,0,0,0,2.2,1.7,4,4,0,0,0,3.2-1l75.2-75a3.24,3.24,0,0,0,1-3.1,3.9,3.9,0,0,0-1.8-2.4l-52-23.5-7.7-7.7c-22.6-20.3-44.5-7-51.1-.1a35.86,35.86,0,0,0-.7,50.4l2.5,2.6-43.8,43.3-1.1.2a25.3,25.3,0,0,0-20,24.5c0,10.5,6.9,20.1,17.1,23.9l.9.4.1.1,37.2,45.6H139a2.84,2.84,0,0,0-2.2,1L102,307.9a3.26,3.26,0,0,0-.6,3.6,3.08,3.08,0,0,0,2.8,1.8H284.8a3.16,3.16,0,0,0,3.2-3.2Zm-9-193.4L210.2,185l-21.1-46.1,43.7-43.6Zm-108.2-9.6a29.24,29.24,0,0,1,8.7-21c6.8-6.8,24.3-15.5,42-.2l.2.2,5.8,5.8-42.2,42.1-5.8-5.8A29.24,29.24,0,0,1,170.9,106.7Zm10.7,31.4,8.9,19.4L159,188.9l-2.6-3a26.32,26.32,0,0,0-8.8-6.4l-4.9-2.2Zm-63,64.1a18.7,18.7,0,1,1,18.7,18.7A18.48,18.48,0,0,1,118.6,202.2Zm21.1,25.9,5.1-1.7a28.44,28.44,0,0,0,9.5-5.5l2.9-2.6,44,53.9H175.5l-.1-.2Zm-27.5,78.5,28.4-28.3H249.1l28.4,28.3Z" fill="#01b6ad"/>
    <rect width="400" height="400" fill="none"/>
  </g>
</svg>
