<svg xmlns="http://www.w3.org/2000/svg" viewBox="0 0 400 400">
  <title>entertainment</title>
  <g>
    <path d="M358.5,270.7H40.5a2.9,2.9,0,0,1-2.9-2.9V100.2a2.9,2.9,0,0,1,2.9-2.9h318a2.9,2.9,0,0,1,2.9,2.9V267.8A2.9,2.9,0,0,1,358.5,270.7ZM43.4,265H355.6V103.1H43.4Z" fill="#01b6ad"/>
    <path d="M345,258.2H54a2.9,2.9,0,0,1-2.9-2.9V114.7a2.9,2.9,0,0,1,2.9-2.9H345a2.9,2.9,0,0,1,2.9,2.9V255.3A2.9,2.9,0,0,1,345,258.2ZM56.9,252.5H342.1V117.6H56.9Z" fill="#01b6ad"/>
    <path d="M223.5,295.7H178.8a2.81,2.81,0,0,1-2.4-1.3,3.2,3.2,0,0,1-.3-2.7l10.5-25a2.94,2.94,0,0,1,2.7-1.8h23.8a2.94,2.94,0,0,1,2.7,1.8l10.4,25a2.64,2.64,0,0,1-.3,2.7A3.09,3.09,0,0,1,223.5,295.7ZM183.1,290h36.1l-8-19.2H191.3Z" fill="#01b6ad"/>
    <path d="M241.6,306.5h-81a8.3,8.3,0,1,1,0-16.6h81a8.3,8.3,0,1,1,0,16.6Zm-81-10.8a2.5,2.5,0,0,0,0,5h81a2.5,2.5,0,1,0,0-5Z" fill="#01b6ad"/>
    <path d="M187,207.1a2.3,2.3,0,0,1-1.4-.4,2.85,2.85,0,0,1-1.4-2.5V162.7a2.85,2.85,0,0,1,1.4-2.5,3,3,0,0,1,2.9,0l36,20.7a2.93,2.93,0,0,1,0,5l-36,20.7A2.26,2.26,0,0,1,187,207.1Zm2.9-39.3v31.5l27.4-15.8Z" fill="#01b6ad"/>
    <rect width="400" height="400" fill="none"/>
  </g>
</svg>
