<svg xmlns="http://www.w3.org/2000/svg" viewBox="0 0 400 400">
  <title>fan</title>
  <g>
    <g>
      <path d="M199.5,284.4c-62,0-112.4-50.3-112.4-112.1S137.5,60.2,199.5,60.2s112.4,50.3,112.4,112.1S261.5,284.4,199.5,284.4Zm0-218.5c-58.8,0-106.6,47.7-106.6,106.4s47.8,106.4,106.6,106.4S306.1,231,306.1,172.3,258.3,65.9,199.5,65.9Z" fill="#303d4c"/>
      <path d="M199.8,275.3c-57,0-103.3-46.2-103.3-103.1s46.3-103,103.3-103,103.3,46.2,103.3,103.1S256.8,275.3,199.8,275.3Zm0-200.4c-53.8,0-97.6,43.7-97.6,97.3s43.8,97.3,97.6,97.3,97.6-43.7,97.6-97.3S253.6,74.9,199.8,74.9Z" fill="#303d4c"/>
      <g>
        <path d="M182.1,163.2a10.54,10.54,0,0,1-1.1-.7,1.08,1.08,0,0,0-.7-.3,117.62,117.62,0,0,1-19.1-8c-8.6-4.6-19.2-12-21.1-21.2-1.4-7.2,2.7-14.8,12.4-22.8,17.7-14.6,32.1-18.7,40.5-11.7,5.9,4.9,6.7,13.5,5.1,16.3a29.14,29.14,0,0,1-3.5,4.6c-4.9,5.4-7.7,9.7-3.3,30.7.3,1.5.5,2.8.7,4a20.91,20.91,0,0,1,5.6-1.4c-.2-1.2-.4-2.5-.7-3.8-4-19.2-1.6-21.9,1.9-25.7a31.21,31.21,0,0,0,4.3-5.6c3.2-5.7,1.1-17.3-6.4-23.5-6.3-5.2-20.8-10.6-47.9,11.7-11.4,9.4-16.3,19-14.4,28.4,4.1,20.5,39.4,32.1,43.8,33.4a11.07,11.07,0,0,0,2,1.1A17.09,17.09,0,0,1,182.1,163.2Z" fill="#303d4c"/>
        <path d="M199.5,194.7A22.5,22.5,0,1,1,222,172.2,22.53,22.53,0,0,1,199.5,194.7Zm0-39.2a16.7,16.7,0,1,0,16.8,16.7A16.82,16.82,0,0,0,199.5,155.5Z" fill="#303d4c"/>
      </g>
      <g>
        <g>
          <path d="M214.5,297V280.4a54.21,54.21,0,0,1-5.8.6v16Z" fill="#303d4c"/>
          <path d="M192.1,297V281.2c-1.9-.1-3.9-.3-5.8-.5V297Z" fill="#303d4c"/>
        </g>
        <path d="M280.5,337.3H117.9a8.07,8.07,0,0,1-7.6-5,8.32,8.32,0,0,1,1.6-9l25-26.5a8.26,8.26,0,0,1,6-2.6H255.5a7.94,7.94,0,0,1,6,2.6l25,26.5a8.29,8.29,0,0,1-6,14ZM142.9,299.9a2.34,2.34,0,0,0-1.8.8l-25,26.5a2.48,2.48,0,0,0,1.8,4.2H280.5a2.51,2.51,0,0,0,2.3-1.5,2.29,2.29,0,0,0-.5-2.7l-25-26.5a2.69,2.69,0,0,0-1.8-.8Z" fill="#303d4c"/>
      </g>
      <rect x="178" y="312.6" width="42.4" height="5.6" fill="#303d4c"/>
    </g>
    <rect width="400" height="400" fill="none"/>
    <path d="M266.2,121.3c-9.4-11.4-19-16.2-28.4-14.3-20.5,4.1-32.2,39.3-33.5,43.7-.3.5-.8,1.3-1.3,2.3a17.09,17.09,0,0,1,5.5,1.9c.3-.5.6-1,.8-1.4a1.08,1.08,0,0,0,.3-.7,117,117,0,0,1,8.1-19.1c4.6-8.6,12-19.2,21.2-21,7.2-1.4,14.9,2.7,22.9,12.4,14.6,17.6,18.7,32,11.7,40.4-4.9,5.9-13.5,6.7-16.4,5.1a24.17,24.17,0,0,1-4.6-3.5c-3.5-3.2-6.6-5.5-14.1-5.5-4,0-9.4.7-16.8,2.2a40.73,40.73,0,0,1-4.2.7,17.17,17.17,0,0,1,1.5,5.6c1.2-.2,2.5-.4,3.9-.7,19.2-4,22-1.6,25.7,1.9a29,29,0,0,0,5.7,4.3,13,13,0,0,0,6.5,1.4,22.89,22.89,0,0,0,17.1-7.9C283.1,162.8,288.5,148.3,266.2,121.3Z" fill="#303d4c"/>
    <path d="M265,210.1c-4.1-20.5-39.4-32.1-43.8-33.4-.5-.3-1.3-.8-2.3-1.3a17,17,0,0,1-1.8,5.5,14.8,14.8,0,0,1,1.3.8,1.08,1.08,0,0,0,.7.3,117.62,117.62,0,0,1,19.1,8c8.6,4.6,19.2,12,21.1,21.2,1.4,7.2-2.7,14.8-12.4,22.8-17.7,14.6-32.1,18.7-40.5,11.7-5.9-4.9-6.7-13.5-5.1-16.3a29.14,29.14,0,0,1,3.5-4.6c4.9-5.4,7.7-9.7,3.3-30.7-.3-1.4-.5-2.7-.7-3.9a17.17,17.17,0,0,1-5.6,1.5q.3,1.65.6,3.6c4,19.2,1.6,21.9-1.9,25.7a31.21,31.21,0,0,0-4.3,5.6c-3.2,5.7-1.1,17.3,6.4,23.5a20.47,20.47,0,0,0,13.4,4.6c8.1,0,19.3-3.8,34.4-16.3C262.1,229.1,266.9,219.5,265,210.1Z" fill="#303d4c"/>
    <path d="M190.7,189.8a8.79,8.79,0,0,1-.6,1,1.08,1.08,0,0,0-.3.7c-3.1,10.1-14.3,37.1-29.3,40.1-7.2,1.4-14.9-2.7-22.9-12.4-14.6-17.6-18.7-32-11.7-40.4a17.12,17.12,0,0,1,12.7-5.8,9.37,9.37,0,0,1,3.7.7,24.17,24.17,0,0,1,4.6,3.5c5.4,4.9,9.7,7.7,30.8,3.3,1.4-.3,2.6-.5,3.7-.7a20.91,20.91,0,0,1-1.4-5.6c-1.1.2-2.3.4-3.5.6-19.2,4-22,1.6-25.7-1.9a29,29,0,0,0-5.7-4.3c-5.8-3.2-17.3-1.1-23.6,6.4-5.2,6.3-10.7,20.8,11.7,47.8,8.1,9.8,16.3,14.7,24.4,14.7a18.1,18.1,0,0,0,4-.4c20.5-4.1,32.2-39.3,33.5-43.7a11.07,11.07,0,0,0,1.1-2A17.42,17.42,0,0,1,190.7,189.8Z" fill="#303d4c"/>
  </g>
</svg>
