<svg xmlns="http://www.w3.org/2000/svg" viewBox="0 0 400 400">
  <title>Artboard 1</title>
  <g>
    <rect width="400" height="400" fill="none"/>
    <path d="M310.9,285.4h-7.8a39.13,39.13,0,0,1-21.4-6.3,56.65,56.65,0,0,1-13.7-13l-28.4-38a17.59,17.59,0,0,0-14.2-7.4H180.6a16.69,16.69,0,0,0-13.5,7.1L140.8,265a48,48,0,0,1-39,20.5H91.3a38.3,38.3,0,0,1-31.1-16,41.77,41.77,0,0,1-6.1-37.2l28-88.7c5.6-17.8,21.5-29.7,39.5-29.7H274.5c21.9,0,41.7,14.3,49.2,35.6l27.1,76.7a43.8,43.8,0,0,1-4.4,38.6,46.15,46.15,0,0,1-35.3,20.7C311.1,285.4,311,285.4,310.9,285.4ZM180.5,214.8h44.8a23.5,23.5,0,0,1,18.9,9.8l28.4,38a50,50,0,0,0,12.2,11.6,32.94,32.94,0,0,0,18.2,5.4h7.7c12.8-1.1,24.1-7.6,30.8-18.1a37.37,37.37,0,0,0,3.8-33.5l-27.1-76.7c-6.7-19-24.3-31.8-43.8-31.8H121.6c-15.5,0-29.2,10.3-34,25.7l-28,88.7h0a36.08,36.08,0,0,0,5.2,32,32.84,32.84,0,0,0,26.5,13.6h10.4a42.17,42.17,0,0,0,34.3-18l26.3-37.2A22.61,22.61,0,0,1,180.5,214.8ZM56.8,233.1Z" fill="#303d4c"/>
    <path d="M131.6,199.4c-14,0-25.4-11.8-25.4-26.3s11.4-26.3,25.4-26.3S157,158.6,157,173.1,145.7,199.4,131.6,199.4Zm0-46.9c-10.9,0-19.7,9.2-19.7,20.6s8.8,20.6,19.7,20.6,19.7-9.2,19.7-20.6S142.5,152.5,131.6,152.5Z" fill="#303d4c"/>
    <path d="M274.2,168.5a13.81,13.81,0,1,1,13.4-13.8A13.62,13.62,0,0,1,274.2,168.5Zm0-22a8.11,8.11,0,1,0,7.7,8.1A7.92,7.92,0,0,0,274.2,146.5Z" fill="#303d4c"/>
    <path d="M274.2,213.3a13.81,13.81,0,1,1,13.4-13.8A13.62,13.62,0,0,1,274.2,213.3Zm0-21.9a8.11,8.11,0,1,0,7.7,8.1A7.92,7.92,0,0,0,274.2,191.4Z" fill="#303d4c"/>
    <path d="M251.1,190.4a13.81,13.81,0,1,1,13.4-13.8A13.62,13.62,0,0,1,251.1,190.4Zm0-21.9a8.11,8.11,0,1,0,7.7,8.1A7.92,7.92,0,0,0,251.1,168.5Z" fill="#303d4c"/>
    <path d="M298.2,190.4a13.81,13.81,0,1,1,13.4-13.8A13.62,13.62,0,0,1,298.2,190.4Zm0-21.9a8.11,8.11,0,1,0,7.7,8.1A7.92,7.92,0,0,0,298.2,168.5Z" fill="#303d4c"/>
    <path d="M218.5,187.4H185.9a2.9,2.9,0,0,1-2.9-2.9v-13a2.9,2.9,0,0,1,2.9-2.9h32.6a2.9,2.9,0,0,1,2.9,2.9v13A2.9,2.9,0,0,1,218.5,187.4Zm-29.8-5.7h26.9v-7.2H188.7Z" fill="#303d4c"/>
  </g>
</svg>
