<svg xmlns="http://www.w3.org/2000/svg" viewBox="0 0 580 580">
  <title>major-arrows</title>
  <g>
    <g>
      <circle cx="77.8" cy="74.6" r="57.8" fill="#00b6ac"/>
      <circle cx="68.8" cy="69.6" r="57.8" fill="#fff1d3"/>
      <path d="M51.7,67.4,86.1,33a1.75,1.75,0,0,0,0-2.5l-.7-.7a1.75,1.75,0,0,0-2.5,0l-36,36a1.94,1.94,0,0,0-.5,1.6,1.6,1.6,0,0,0,.5,1.6l36,36a1.66,1.66,0,0,0,1.3.5,2.11,2.11,0,0,0,1.3-.5l.7-.7a1.75,1.75,0,0,0,0-2.5Z" fill="#1e2633"/>
    </g>
    <g>
      <circle cx="221.8" cy="75.4" r="57.8" fill="#00b6ac"/>
      <circle cx="212.8" cy="70.4" r="57.8" fill="#fff1d3"/>
      <path d="M232.3,68.2,197.9,33.8a1.75,1.75,0,0,1,0-2.5l.7-.7a1.75,1.75,0,0,1,2.5,0l36,36a1.94,1.94,0,0,1,.5,1.6,1.6,1.6,0,0,1-.5,1.6l-36,36a1.66,1.66,0,0,1-1.3.5,2.11,2.11,0,0,1-1.3-.5l-.7-.7a1.75,1.75,0,0,1,0-2.5Z" fill="#1e2633"/>
    </g>
    <g>
      <circle cx="77.1" cy="221.5" r="57.8" fill="#9f2046"/>
      <circle cx="68" cy="216.5" r="57.8" fill="#1e2633"/>
      <path d="M51,214.2l34.4-34.4a1.75,1.75,0,0,0,0-2.5l-.7-.7a1.75,1.75,0,0,0-2.5,0l-36,36a1.94,1.94,0,0,0-.5,1.6,1.6,1.6,0,0,0,.5,1.6l36,36a1.66,1.66,0,0,0,1.3.5,2.11,2.11,0,0,0,1.3-.5l.7-.7a1.75,1.75,0,0,0,0-2.5Z" fill="#00b6ab"/>
    </g>
    <g>
      <circle cx="223.1" cy="219.7" r="57.8" fill="#9f2046"/>
      <circle cx="214.1" cy="214.7" r="57.8" fill="#1e2633"/>
      <path d="M233.5,212.5l-34.4-34.4a1.75,1.75,0,0,1,0-2.5l.7-.7a1.75,1.75,0,0,1,2.5,0l36,36a1.94,1.94,0,0,1,.5,1.6,1.6,1.6,0,0,1-.5,1.6l-36,36a1.66,1.66,0,0,1-1.3.5,2.11,2.11,0,0,1-1.3-.5l-.7-.7a1.75,1.75,0,0,1,0-2.5Z" fill="#00b6ab"/>
    </g>
    <g>
      <circle cx="77.1" cy="365.5" r="57.8" fill="#00b6ac"/>
      <circle cx="68" cy="360.5" r="57.8" fill="#9e1f45"/>
      <path d="M51,358.3l34.4-34.4a1.75,1.75,0,0,0,0-2.5l-.7-.7a1.75,1.75,0,0,0-2.5,0l-36,36a1.94,1.94,0,0,0-.5,1.6,1.6,1.6,0,0,0,.5,1.6l36,36a1.66,1.66,0,0,0,1.3.5,2.11,2.11,0,0,0,1.3-.5l.7-.7a1.75,1.75,0,0,0,0-2.5Z" fill="#bfdcae"/>
    </g>
    <g>
      <circle cx="222.6" cy="365.8" r="57.8" fill="#00b6ac"/>
      <circle cx="213.6" cy="360.8" r="57.8" fill="#9e1f45"/>
      <path d="M233,358.6l-34.4-34.4a1.75,1.75,0,0,1,0-2.5l.7-.7a1.75,1.75,0,0,1,2.5,0l36,36a1.94,1.94,0,0,1,.5,1.6,1.6,1.6,0,0,1-.5,1.6l-36,36a1.66,1.66,0,0,1-1.3.5,2.11,2.11,0,0,1-1.3-.5l-.7-.7a1.75,1.75,0,0,1,0-2.5Z" fill="#bfdcae"/>
    </g>
    <g>
      <circle cx="77.1" cy="510.1" r="57.8" fill="#c6e2b7"/>
      <circle cx="68" cy="505.1" r="57.8" fill="#313d4c"/>
      <path d="M51,502.9l34.4-34.4a1.75,1.75,0,0,0,0-2.5l-.7-.7a1.75,1.75,0,0,0-2.5,0l-36,36a1.94,1.94,0,0,0-.5,1.6,1.6,1.6,0,0,0,.5,1.6l36,36a1.66,1.66,0,0,0,1.3.5,2.11,2.11,0,0,0,1.3-.5l.7-.7a1.75,1.75,0,0,0,0-2.5Z" fill="#c6e2b7"/>
    </g>
    <g>
      <circle cx="223.1" cy="509.6" r="57.8" fill="#c6e2b7"/>
      <circle cx="214.1" cy="504.6" r="57.8" fill="#313d4c"/>
      <path d="M233.5,502.4,199.2,468a1.75,1.75,0,0,1,0-2.5l.7-.7a1.75,1.75,0,0,1,2.5,0l36,36a1.94,1.94,0,0,1,.5,1.6,1.6,1.6,0,0,1-.5,1.6l-36,36a1.66,1.66,0,0,1-1.3.5,2.11,2.11,0,0,1-1.3-.5l-.7-.7a1.75,1.75,0,0,1,0-2.5Z" fill="#c6e2b7"/>
    </g>
    <g>
      <circle cx="367.1" cy="76.1" r="57.8" fill="#fff2d4"/>
      <circle cx="358.1" cy="71.1" r="57.8" fill="#00b6ab"/>
      <path d="M341,68.9l34.4-34.4a1.75,1.75,0,0,0,0-2.5l-.7-.7a1.75,1.75,0,0,0-2.5,0l-36,36a1.94,1.94,0,0,0-.5,1.6,1.6,1.6,0,0,0,.5,1.6l36,36a1.66,1.66,0,0,0,1.3.5,2.11,2.11,0,0,0,1.3-.5l.7-.7a1.75,1.75,0,0,0,0-2.5Z" fill="#1e2633"/>
    </g>
    <g>
      <circle cx="513.2" cy="75.5" r="57.8" fill="#fff2d4"/>
      <circle cx="504.2" cy="70.5" r="57.8" fill="#00b6ab"/>
      <path d="M523.7,68.2,489.3,33.8a1.75,1.75,0,0,1,0-2.5l.7-.7a1.75,1.75,0,0,1,2.5,0l36,36a1.94,1.94,0,0,1,.5,1.6,1.6,1.6,0,0,1-.5,1.6l-36,36a1.66,1.66,0,0,1-1.3.5,2.11,2.11,0,0,1-1.3-.5l-.7-.7a1.75,1.75,0,0,1,0-2.5Z" fill="#1e2633"/>
    </g>
    <g>
      <circle cx="366.7" cy="220.8" r="57.8" fill="#1e2633"/>
      <circle cx="357.7" cy="215.8" r="57.8" fill="#9f2046"/>
      <path d="M340.6,213.6,375,179.2a1.75,1.75,0,0,0,0-2.5l-.7-.7a1.75,1.75,0,0,0-2.5,0l-36,36a1.94,1.94,0,0,0-.5,1.6,1.6,1.6,0,0,0,.5,1.6l36,36a1.66,1.66,0,0,0,1.3.5,2.11,2.11,0,0,0,1.3-.5l.7-.7a1.75,1.75,0,0,0,0-2.5Z" fill="#00b6ab"/>
    </g>
    <g>
      <circle cx="512.6" cy="219.4" r="57.8" fill="#1e2633"/>
      <circle cx="503.6" cy="214.4" r="57.8" fill="#9f2046"/>
      <path d="M523,212.2l-34.4-34.4a1.75,1.75,0,0,1,0-2.5l.7-.7a1.75,1.75,0,0,1,2.5,0l36,36a1.94,1.94,0,0,1,.5,1.6,1.6,1.6,0,0,1-.5,1.6l-36,36a1.66,1.66,0,0,1-1.3.5,2.11,2.11,0,0,1-1.3-.5l-.7-.7a1.75,1.75,0,0,1,0-2.5Z" fill="#00b6ab"/>
    </g>
    <g>
      <circle cx="368" cy="365.9" r="57.8" fill="#9e1f45"/>
      <circle cx="359" cy="360.9" r="57.8" fill="#00b6ab"/>
      <path d="M341.9,358.7l34.4-34.4a1.75,1.75,0,0,0,0-2.5l-.7-.7a1.75,1.75,0,0,0-2.5,0l-36,36a1.94,1.94,0,0,0-.5,1.6,1.6,1.6,0,0,0,.5,1.6l36,36a1.66,1.66,0,0,0,1.3.5,2.11,2.11,0,0,0,1.3-.5l.7-.7a1.75,1.75,0,0,0,0-2.5Z" fill="#bfdcae"/>
    </g>
    <g>
      <circle cx="512.2" cy="366" r="57.8" fill="#9e1f45"/>
      <circle cx="503.2" cy="361" r="57.8" fill="#00b6ab"/>
      <path d="M522.6,358.8l-34.4-34.4a1.75,1.75,0,0,1,0-2.5l.7-.7a1.75,1.75,0,0,1,2.5,0l36,36a1.94,1.94,0,0,1,.5,1.6,1.6,1.6,0,0,1-.5,1.6l-36,36a1.66,1.66,0,0,1-1.3.5,2.11,2.11,0,0,1-1.3-.5l-.7-.7a1.75,1.75,0,0,1,0-2.5Z" fill="#bfdcae"/>
    </g>
    <g>
      <circle cx="367.7" cy="509.4" r="57.8" fill="#313d4c"/>
      <circle cx="358.7" cy="504.4" r="57.8" fill="#c6e2b7"/>
      <path d="M341.6,502.2,376,467.8a1.75,1.75,0,0,0,0-2.5l-.7-.7a1.75,1.75,0,0,0-2.5,0l-36,36a1.94,1.94,0,0,0-.5,1.6,1.6,1.6,0,0,0,.5,1.6l36,36a1.66,1.66,0,0,0,1.3.5,2.11,2.11,0,0,0,1.3-.5l.7-.7a1.75,1.75,0,0,0,0-2.5Z" fill="#313d4c"/>
    </g>
    <g>
      <circle cx="512.6" cy="509.3" r="57.8" fill="#313d4c"/>
      <circle cx="503.6" cy="504.3" r="57.8" fill="#c6e2b7"/>
      <path d="M523,502l-34.4-34.4a1.75,1.75,0,0,1,0-2.5l.7-.7a1.75,1.75,0,0,1,2.5,0l36,36a1.94,1.94,0,0,1,.5,1.6,1.6,1.6,0,0,1-.5,1.6l-36,36a1.66,1.66,0,0,1-1.3.5,2.11,2.11,0,0,1-1.3-.5l-.7-.7a1.75,1.75,0,0,1,0-2.5Z" fill="#313d4c"/>
    </g>
    <rect width="580" height="580" fill="none"/>
  </g>
</svg>
