<svg xmlns="http://www.w3.org/2000/svg" viewBox="0 0 400 400">
  <title>office-supplies</title>
  <g>
    <rect width="400" height="400" fill="none"/>
    <path d="M238,347H215.3a2.9,2.9,0,0,1-2.9-2.9V110.5a2.9,2.9,0,0,1,2.9-2.9H238a2.9,2.9,0,0,1,2.9,2.9V344.1A2.9,2.9,0,0,1,238,347Zm-19.8-5.7h17V113.4h-17Z" fill="#01b6ad"/>
    <path d="M165.6,347a14.19,14.19,0,0,1-14.2-14.2V318a2.9,2.9,0,1,1,5.8,0v14.8a8.5,8.5,0,0,0,17,0V318a2.9,2.9,0,0,1,5.8,0v14.8A14.56,14.56,0,0,1,165.6,347Z" fill="#01b6ad"/>
    <path d="M176.9,300.8H154.2a2.9,2.9,0,0,1-2.9-2.9V99.2a2.9,2.9,0,0,1,2.9-2.9h22.7a2.9,2.9,0,0,1,2.9,2.9V297.9A2.9,2.9,0,0,1,176.9,300.8Zm-19.8-5.7h17v-193h-17Z" fill="#01b6ad"/>
    <path d="M238,335.7H215.3a2.9,2.9,0,0,1-2.9-2.9V99.2a2.9,2.9,0,0,1,2.9-2.9H238a2.9,2.9,0,0,1,2.9,2.9V332.8A2.9,2.9,0,0,1,238,335.7Zm-19.8-5.8h17V102.1h-17Z" fill="#01b6ad"/>
    <path d="M176.9,102.1H154.2a2.68,2.68,0,0,1-2.3-1.2,3.2,3.2,0,0,1-.5-2.5L162.8,60a3,3,0,0,1,2.8-2.1h0a2.88,2.88,0,0,1,2.8,2.1l11.4,38.4a2.52,2.52,0,0,1-.5,2.5A3.3,3.3,0,0,1,176.9,102.1Zm-18.8-5.8h15L165.6,71Z" fill="#01b6ad"/>
    <path d="M176.9,320.9H154.2a2.9,2.9,0,0,1-2.9-2.9V298a2.9,2.9,0,0,1,2.9-2.9h22.7a2.9,2.9,0,0,1,2.9,2.9v20A2.9,2.9,0,0,1,176.9,320.9Zm-19.8-5.8h17V300.8h-17Z" fill="#01b6ad"/>
    <path d="M135.7,89.9a2.9,2.9,0,0,1-2.9-2.9V72.2a8.5,8.5,0,1,0-17,0V87a2.9,2.9,0,0,1-5.8,0V72.2a14.2,14.2,0,1,1,28.4,0V87A2.62,2.62,0,0,1,135.7,89.9Z" fill="#01b6ad"/>
    <path d="M135.7,308.7H113a2.9,2.9,0,0,1-2.9-2.9V107a2.9,2.9,0,0,1,2.9-2.9h22.7a2.9,2.9,0,0,1,2.9,2.9V305.7A2.93,2.93,0,0,1,135.7,308.7Zm-19.8-5.8h17v-193h-17Z" fill="#01b6ad"/>
    <path d="M124.4,347a2.88,2.88,0,0,1-2.8-2.1l-11.4-38.4a2.52,2.52,0,0,1,.5-2.5,2.94,2.94,0,0,1,2.3-1.2h22.7A2.68,2.68,0,0,1,138,304a3.2,3.2,0,0,1,.5,2.5L127.1,345A2.79,2.79,0,0,1,124.4,347Zm-7.5-38.3,7.5,25.3,7.5-25.3Z" fill="#01b6ad"/>
    <path d="M135.7,109.9H113a2.9,2.9,0,0,1-2.9-2.9V87a2.9,2.9,0,0,1,2.9-2.9h22.7a2.9,2.9,0,0,1,2.9,2.9v20A2.9,2.9,0,0,1,135.7,109.9Zm-19.8-5.7h17V89.9h-17Z" fill="#01b6ad"/>
    <path d="M238,148.3H215.3a2.9,2.9,0,0,1-2.9-2.9V60.8a2.9,2.9,0,0,1,2.9-2.9H238a2.9,2.9,0,0,1,2.9,2.9v84.6A2.9,2.9,0,0,1,238,148.3Zm-19.8-5.8h17V63.7h-17Z" fill="#01b6ad"/>
    <path d="M245.9,135.2a2.9,2.9,0,0,1-2.9-2.9V63.7H229.3a2.9,2.9,0,0,1,0-5.8h16.6a2.9,2.9,0,0,1,2.9,2.9v71.5A2.9,2.9,0,0,1,245.9,135.2Z" fill="#01b6ad"/>
    <path d="M287,297.3H264.3a2.9,2.9,0,0,1-2.9-2.9V60.8a2.9,2.9,0,0,1,2.9-2.9H287a2.9,2.9,0,0,1,2.9,2.9V294.4A3,3,0,0,1,287,297.3Zm-19.9-5.7h17V63.7h-17Z" fill="#01b6ad"/>
    <path d="M287,308.7H264.3a2.9,2.9,0,0,1-2.9-2.9V72.2a2.9,2.9,0,0,1,2.9-2.9H287a2.9,2.9,0,0,1,2.9,2.9V305.8A3,3,0,0,1,287,308.7Zm-19.9-5.8h17V75.1h-17Z" fill="#01b6ad"/>
    <path d="M287,347H264.3a2.9,2.9,0,0,1-2.9-2.9V259.5a2.9,2.9,0,0,1,2.9-2.9H287a2.9,2.9,0,0,1,2.9,2.9v84.6A3,3,0,0,1,287,347Zm-19.9-5.7h17V262.5h-17Z" fill="#01b6ad"/>
    <path d="M273,347H256.4a2.9,2.9,0,0,1-2.9-2.9V272.6a2.9,2.9,0,0,1,5.8,0v68.6H273a2.9,2.9,0,1,1,0,5.8Z" fill="#01b6ad"/>
  </g>
</svg>
