<svg xmlns="http://www.w3.org/2000/svg" viewBox="0 0 400 400">
  <title>refrigerator</title>
  <g>
    <g>
      <path d="M265,350.2H135a42.93,42.93,0,0,1-42.9-42.8V86A42.87,42.87,0,0,1,135,43.2H265A42.93,42.93,0,0,1,307.9,86V307.4A42.93,42.93,0,0,1,265,350.2ZM135,49A37.07,37.07,0,0,0,97.9,86V307.4a37.13,37.13,0,0,0,37.1,37H265a37.07,37.07,0,0,0,37.1-37V86A37.13,37.13,0,0,0,265,49Z" fill="#303d4c"/>
      <path d="M305,148.7H95a2.9,2.9,0,1,1,0-5.8H305a2.9,2.9,0,0,1,2.9,2.9A2.84,2.84,0,0,1,305,148.7Z" fill="#303d4c"/>
      <rect x="265.42" y="79.06" width="5.6" height="42.3" fill="#303d4c"/>
      <rect x="122.98" y="348.76" width="42.4" height="8" fill="#303d4c"/>
      <rect x="228.98" y="348.76" width="42.4" height="8" fill="#303d4c"/>
      <rect x="264.96" y="170.83" width="6" height="127.7" fill="#303d4c"/>
    </g>
    <rect width="400" height="400" fill="none"/>
  </g>
</svg>
