<svg xmlns="http://www.w3.org/2000/svg" xmlns:xlink="http://www.w3.org/1999/xlink" viewBox="0 0 400 400">
  <defs>
    <clipPath id="a">
      <polygon points="228.299 341.375 62.699 157.875 171.599 60.075 337.199 243.575 228.299 341.375" fill="none"/>
    </clipPath>
  </defs>
  <title>Artboard 1</title>
  <g>
    <g>
      <g>
        <line x1="139.99937" y1="40.17523" x2="352.99937" y2="276.17524" fill="none"/>
        <g>
          <path d="M161.89937,68.77523l4.3-3.8-24-26.6a2.90259,2.90259,0,1,0-4.3,3.9Z" fill="#303d4c"/>
          <path d="M355.09938,274.27524l-23.3-25.8-4.3,3.8,23.3,25.8a3.19,3.19,0,0,0,2.1,1,2.64,2.64,0,0,0,1.9-.7,2.8,2.8,0,0,0,.44247-3.935Q355.17385,274.355,355.09938,274.27524Z" fill="#303d4c"/>
        </g>
      </g>
      <g>
        <line x1="129.59937" y1="49.57523" x2="342.59937" y2="285.47524" fill="none"/>
        <g>
          <path d="M344.69936,283.57523l-23.3-25.8-4.3,3.8,23.3,25.8a3.19,3.19,0,0,0,2.1,1,2.64,2.64,0,0,0,1.9-.7,2.8,2.8,0,0,0,.44247-3.935Q344.77382,283.655,344.69936,283.57523Z" fill="#303d4c"/>
          <path d="M151.49938,78.17524l4.3-3.8-24-26.6a2.90259,2.90259,0,1,0-4.3,3.9Z" fill="#303d4c"/>
        </g>
      </g>
      <g>
        <line x1="57.39937" y1="114.37524" x2="270.39938" y2="350.37524" fill="none"/>
        <g>
          <path d="M83.59937,139.07523l-24-26.6a2.90259,2.90259,0,0,0-4.3,3.9h0l24,26.6Z" fill="#303d4c"/>
          <path d="M249.19936,322.57523l-4.3,3.8,23.3,25.8a3.19,3.19,0,0,0,2.1,1,2.64,2.64,0,0,0,1.9-.7,2.87,2.87,0,0,0,.244-4.05145l-.044-.04855Z" fill="#303d4c"/>
        </g>
      </g>
      <g>
        <line x1="46.99937" y1="123.77524" x2="259.99937" y2="359.67522" fill="none"/>
        <g>
          <path d="M73.19937,148.47524l-24-26.6a2.90259,2.90259,0,0,0-4.3,3.9h0l24,26.6Z" fill="#303d4c"/>
          <path d="M238.79937,331.97522l-4.3,3.8,23.3,25.8a3.19,3.19,0,0,0,2.1,1,2.64,2.64,0,0,0,1.9-.7,2.87,2.87,0,0,0,.244-4.05145l-.044-.04855Z" fill="#303d4c"/>
        </g>
      </g>
      <g>
        <line x1="119.19937" y1="58.97523" x2="332.09937" y2="294.87524" fill="none"/>
        <g>
          <path d="M141.09937,87.47524l4.3-3.8-24-26.6a2.90259,2.90259,0,1,0-4.3,3.9Z" fill="#303d4c"/>
          <path d="M310.99938,267.17524l-4.3,3.8,23.3,25.8a3.19,3.19,0,0,0,2.1,1,2.64,2.64,0,0,0,1.9-.7,2.87,2.87,0,0,0,.244-4.05145l-.044-.04855Z" fill="#303d4c"/>
        </g>
      </g>
      <g>
        <line x1="108.69937" y1="68.27524" x2="321.69938" y2="304.27523" fill="none"/>
        <g>
          <path d="M130.59937,96.87523l4.3-3.8-24-26.6a2.90259,2.90259,0,1,0-4.3,3.9Z" fill="#303d4c"/>
          <path d="M300.59938,276.57523l-4.3,3.8,23.3,25.8a3.19,3.19,0,0,0,2.1,1,2.64,2.64,0,0,0,1.9-.7,2.87,2.87,0,0,0,.244-4.05145l-.044-.04855Z" fill="#303d4c"/>
        </g>
      </g>
      <g>
        <line x1="98.69937" y1="77.27523" x2="311.69938" y2="313.27523" fill="none"/>
        <g>
          <path d="M120.59937,105.87523l4.3-3.8-24-26.6a2.90259,2.90259,0,1,0-4.3,3.9Z" fill="#303d4c"/>
          <path d="M290.49938,285.57523l-4.3,3.8,23.3,25.8a3.19,3.19,0,0,0,2.1,1,2.64,2.64,0,0,0,1.9-.7,2.87,2.87,0,0,0,.244-4.05145l-.044-.04855Z" fill="#303d4c"/>
        </g>
      </g>
      <g>
        <line x1="88.29937" y1="86.67524" x2="301.29938" y2="322.57525" fill="none"/>
        <g>
          <path d="M110.19937,115.27523l4.3-3.8-24-26.6a2.90259,2.90259,0,1,0-4.3,3.9Z" fill="#303d4c"/>
          <path d="M280.09938,294.87525l-4.3,3.8,23.3,25.8a3.19,3.19,0,0,0,2.1,1,2.64,2.64,0,0,0,1.9-.7,2.87,2.87,0,0,0,.244-4.05145l-.044-.04855Z" fill="#303d4c"/>
        </g>
      </g>
      <g>
        <line x1="77.89937" y1="96.07523" x2="290.79937" y2="331.97524" fill="none"/>
        <g>
          <path d="M269.69936,304.27524l-4.3,3.8,23.3,25.8a3.19,3.19,0,0,0,2.1,1,2.64,2.64,0,0,0,1.9-.7,2.87,2.87,0,0,0,.244-4.05145l-.044-.04855Z" fill="#303d4c"/>
          <path d="M99.79937,124.57524l4.3-3.8-24-26.6a2.90259,2.90259,0,1,0-4.3,3.9Z" fill="#303d4c"/>
        </g>
      </g>
      <g>
        <line x1="67.39937" y1="105.37524" x2="280.39938" y2="341.37524" fill="none"/>
        <g>
          <path d="M89.29937,133.97524l4.3-3.8-24-26.6a2.90259,2.90259,0,1,0-4.3,3.9Z" fill="#303d4c"/>
          <path d="M259.29937,313.67524l-4.3,3.8,23.3,25.8a3.19,3.19,0,0,0,2.1,1,2.64,2.64,0,0,0,1.9-.7,2.87,2.87,0,0,0,.244-4.05145l-.044-.04855Z" fill="#303d4c"/>
        </g>
      </g>
      <g clip-path="url(#a)">
        <g>
          <path d="M301.29937,278.77524a2.88,2.88,0,0,1-2.9-2.8l-2.3-81.3-76.1-9.7a2.89,2.89,0,0,1-2.5-2.8l-2.1-76.9-80.1-10a2.87141,2.87141,0,1,1,.7-5.7h0l82.5,10.3a2.89,2.89,0,0,1,2.5,2.8l2.1,77,76.1,9.7a2.89,2.89,0,0,1,2.5,2.8l2.4,83.8a2.86,2.86,0,0,1-2.8,2.8Z" fill="#303d4c"/>
          <path d="M262.49938,313.57523a2.88,2.88,0,0,1-2.9-2.8l-2.3-81.3-76.1-9.7a2.89,2.89,0,0,1-2.5-2.8l-2.1-76.9-80.1-10a2.87141,2.87141,0,1,1,.7-5.7l82.5,10.3a2.89,2.89,0,0,1,2.5,2.8l2.1,77,76.1,9.7a2.89,2.89,0,0,1,2.5,2.8l2.4,83.8a2.73,2.73,0,0,1-2.65817,2.8q-.07091.00183-.14182,0Z" fill="#303d4c"/>
          <path d="M224.09937,348.07523a2.88,2.88,0,0,1-2.9-2.8l-2.3-81.3-76.1-9.7a2.89,2.89,0,0,1-2.5-2.8l-2.1-76.9-80.1-10a2.87141,2.87141,0,1,1,.7-5.7l82.5,10.3a2.89,2.89,0,0,1,2.5,2.8l2.1,77,76.1,9.7a2.89,2.89,0,0,1,2.5,2.8l2.4,83.8a2.73,2.73,0,0,1-2.65817,2.8q-.07091.00183-.14183,0Z" fill="#303d4c"/>
        </g>
      </g>
    </g>
    <path d="M228.19937,344.17524h-.2a2.88,2.88,0,0,1-2-.9l-165.2-183.2a2.87,2.87,0,0,1,.15144-4.056l.04855-.044,109.2-98.1a2.7,2.7,0,0,1,2.1-.7,2.88,2.88,0,0,1,2,.9l165.3,183.1a2.87,2.87,0,0,1-.15146,4.056l-.04855.044-109.2,98.1A3.18,3.18,0,0,1,228.19937,344.17524Zm-161.2-185.8,161.4,178.8,105-94.3-161.4-178.8Z" fill="#303d4c"/>
  </g>
</svg>
