<svg xmlns="http://www.w3.org/2000/svg" viewBox="0 0 479.5 426.8">
  <title>Artboard 1</title>
  <path d="M104.5,53.4h352c20.3,0,26.1,7.1,21.6,26.5q-17.25,74.25-34.6,148.3c-3.2,13.6-7.8,17.4-22,17.4H145.2c2.4,11.1,4.4,21,6.7,31.6h246c15.5,0,23.8,5.5,24,16s-8.2,16.3-23.5,16.3H147c-16.6,0-22.2-4.3-25.7-20.6Q103.75,206.55,86.4,124C80.5,96.2,74.5,68.4,68.9,40.5c-1.3-6.5-3.9-9-10.8-8.6-12.8.6-25.6.3-38.4.1S.1,26.2,0,16.2C-.1,6,6.8.1,19.4.1Q48.2-.05,77,.1c11.9.1,16.6,4,19.3,15.7C99,27.9,101.6,40,104.5,53.4ZM443.8,86H111.2c9.1,42.9,18.1,84.9,27,126.9H414.3C424.1,170.6,433.8,128.7,443.8,86Z" fill="#1e2633"/>
  <path d="M405.3,373.4a53.25,53.25,0,1,1-53-53.1A53.12,53.12,0,0,1,405.3,373.4Zm-32,0a21.36,21.36,0,0,0-21.2-21.3c-11.5.1-21.3,9.9-21.2,21.4a21.23,21.23,0,0,0,21.4,21.1C364.1,394.7,373.3,385.4,373.3,373.4Z" fill="#1e2633"/>
  <path d="M191.9,426.8a53.55,53.55,0,0,1-53.4-52.9c-.2-29.3,24.1-53.7,53.7-53.6a53.68,53.68,0,0,1,53.4,52.9C245.8,402.6,221.5,426.8,191.9,426.8Zm21.3-53.2a21.15,21.15,0,1,0-42.3-.1,21.15,21.15,0,0,0,42.3.1Z" fill="#1e2633"/>
</svg>
