<svg xmlns="http://www.w3.org/2000/svg" viewBox="0 0 400 400">
  <title>supplies</title>
  <g>
    <path d="M313.4,186h-2.1l7.2-53.7H276.8l-.5-1a4.35,4.35,0,0,0-.4-.7,7,7,0,0,1-.6-.9l-6.1-7.6V101.7H243.6v20.4l-6.2,7.7a29.43,29.43,0,0,0-6.5,18V186H219l-5.9-62.1a11,11,0,0,0-10.8-9.9H199a10.94,10.94,0,0,0-10.8,9.9L182.3,186H176V161.2a36.32,36.32,0,0,0-3.4-15.8l-4.5-10.1V114.4H124.8v15.5H96.1a7.11,7.11,0,0,0-7.2,7.2v48.8l-1.6.2a18.11,18.11,0,0,0-16.4,18v19.8H81.7v70.9A25.57,25.57,0,0,0,107,320h61.7a7.17,7.17,0,0,0,7.2-6.3l5.2-48.1h39.7l5.2,48.1a6.88,6.88,0,0,0,7.2,6.3h61.4a25.57,25.57,0,0,0,25.3-25.2V223.9h11.6V204A18.34,18.34,0,0,0,313.4,186Zm-3.7-46.4L303.8,186H281.5l-6.3-46.4ZM251,109.3h11.2v10.8H251Zm-2.1,18.1h0l14.8-.1,3,4,7.6,55.1h-36V160.6l-.1-.1S236.4,128.5,248.9,127.4Zm-53.2-2.7a3.44,3.44,0,0,1,3.6-3.5h3.2a3.44,3.44,0,0,1,3.6,3.5l6,61.3h-22Zm-63.5-3.1h28.9v10.8H132.2Zm0,18h30.1l3.7,8.7a30.55,30.55,0,0,1,2.7,13V186H132.2Zm-36.1-2.5H125V158H96.1Zm0,28H125V186H96.1Zm72.4,147.7H106.9a18,18,0,0,1-18-18V223.9h89ZM181.8,258l3.6-34.2h31L220,258Zm130.9,36.8a18.05,18.05,0,0,1-18,18H233.1l-9.4-88.9h89Zm11.2-80h-1.4v1.8H78V204a10.69,10.69,0,0,1,10.8-10.8H313A10.63,10.63,0,0,1,323.8,204v10.8Z" fill="#303d4c"/>
    <rect width="400" height="400" fill="none"/>
  </g>
</svg>
