<svg xmlns="http://www.w3.org/2000/svg" viewBox="0 0 400 400">
  <title>towels</title>
  <g>
    <g>
      <line x1="156" y1="88.5" x2="160.5" y2="84" fill="none"/>
      <path d="M156,91.4a2.85,2.85,0,0,1-2-4.9l4.5-4.5a2.9,2.9,0,0,1,4.1,4.1l-4.5,4.5A3.44,3.44,0,0,1,156,91.4Z" fill="#303d4c"/>
    </g>
    <g>
      <line x1="194" y1="90.5" x2="198.5" y2="86" fill="none"/>
      <path d="M194,93.4a2.85,2.85,0,0,1-2-4.9l4.5-4.5a2.9,2.9,0,0,1,4.1,4.1l-4.5,4.5A3.44,3.44,0,0,1,194,93.4Z" fill="#303d4c"/>
    </g>
    <g>
      <line x1="229" y1="88.5" x2="233.5" y2="84" fill="none"/>
      <path d="M229,91.4a2.85,2.85,0,0,1-2-4.9l4.5-4.5a2.9,2.9,0,0,1,4.1,4.1l-4.5,4.5A3.44,3.44,0,0,1,229,91.4Z" fill="#303d4c"/>
    </g>
    <g>
      <path d="M319.8,88a25.55,25.55,0,0,0-21.6-13H259.6a14.33,14.33,0,0,1,1.6,5.7H298a19.87,19.87,0,0,1,16.8,10.1,17.39,17.39,0,0,1-.1,17.5c0,.1-.1.1-.1.2L270.2,201c-8.5,14.9-15.6,30.2-22.2,44.6-3.5,7.6-11.6,12.6-20.5,12.6H79a19.87,19.87,0,0,1-16.8-10.1,18,18,0,0,1-1.6-3.8,15.53,15.53,0,0,1-.3-3.1c0-9.3,8.3-16.9,18.5-16.9H222c6.5,0,11.8,4.8,11.8,10.7s-5.3,10.7-11.8,10.7H76.7a3.59,3.59,0,0,1-3.8-3.3,3.66,3.66,0,0,1,3.8-3.3H214.5a2.9,2.9,0,1,0,0-5.8H76.7a9.11,9.11,0,1,0,0,18.2H222c9.7,0,17.5-7.4,17.5-16.5s-7.9-16.5-17.5-16.5H78.8A25.53,25.53,0,0,0,68,220.9L87.9,187a17.45,17.45,0,0,1-3.4-5.5L57.3,227.7A23.17,23.17,0,0,0,55,245.3C57,256,66.9,264,78.8,264H229.5a2.92,2.92,0,0,0,.9-.2A27.78,27.78,0,0,0,253.1,248c6.6-14.3,13.7-29.5,22.1-44.2,0-.1.1-.1.1-.2L319.7,111A23.29,23.29,0,0,0,319.8,88Z" fill="#303d4c"/>
      <g>
        <path d="M198.4,194.3H97.2a16.64,16.64,0,0,1-13-7,22.45,22.45,0,0,1-3.5-18.2,4.87,4.87,0,0,1,.3-.7l37.9-63a334.12,334.12,0,0,0,14.9-30C137,68.4,147.3,64,155,64h91.5A18.57,18.57,0,0,1,262,73.3a16.73,16.73,0,0,1,0,16.5l-30.2,62.9c0,.1-.1.1-.1.2-5.7,10-10.5,20.3-15,30A19.76,19.76,0,0,1,198.4,194.3ZM86.2,170.9a16.88,16.88,0,0,0,2.7,13,11.18,11.18,0,0,0,8.6,4.7h101a14.2,14.2,0,0,0,13.1-8c4.5-9.8,9.4-20.2,15.1-30.4l30.2-62.9c0-.1.1-.1.1-.2a10.83,10.83,0,0,0,0-11,12.67,12.67,0,0,0-10.7-6.4H155c-6.4,0-14,3.8-16,8-4.5,9.8-9.4,20.3-15.2,30.5Z" fill="#303d4c"/>
        <path d="M199.8,194.3H97.3c-9.6,0-17.4-8.4-17.4-18.8s7.8-18.8,17.4-18.8h97.4c7.1,0,12.8,6.2,12.8,13.8s-5.8,13.8-12.8,13.8H95.9a7.92,7.92,0,0,1,0-15.8h93.7a2.9,2.9,0,0,1,0,5.8H95.9a2,2,0,0,0-1.7,2.1,1.93,1.93,0,0,0,1.7,2.1h98.8c3.9,0,7.1-3.6,7.1-8.1s-3.2-8.1-7.1-8.1H97.3c-6.4,0-11.6,5.9-11.6,13.1s5.2,13.1,11.6,13.1H199.8a2.9,2.9,0,0,1,0,5.8Z" fill="#303d4c"/>
      </g>
      <path d="M319.8,138.2a24.71,24.71,0,0,0-11.2-10.5l-2.5,5.2a19,19,0,0,1,8.7,8.1,17.39,17.39,0,0,1-.1,17.5c0,.1-.1.1-.1.2l-44.4,92.6c-8.5,14.9-15.6,30.2-22.2,44.6-3.5,7.6-11.6,12.6-20.5,12.6H79a19.87,19.87,0,0,1-16.8-10.1,18,18,0,0,1-1.6-3.8,15.53,15.53,0,0,1-.3-3.1c0-9.3,8.3-16.9,18.5-16.9H222c6.5,0,11.8,4.8,11.8,10.7S228.5,296,222,296H76.7a3.59,3.59,0,0,1-3.8-3.3,3.66,3.66,0,0,1,3.8-3.3H214.5a2.9,2.9,0,0,0,0-5.8H76.7a9.11,9.11,0,1,0,0,18.2H222c9.7,0,17.5-7.4,17.5-16.5s-7.9-16.5-17.5-16.5H78.8A25.53,25.53,0,0,0,68,271.2l6.3-10.7a29.75,29.75,0,0,1-5.5-2L57.3,278A23.17,23.17,0,0,0,55,295.6c2.1,10.5,12,18.5,23.8,18.5H229.5a2.92,2.92,0,0,0,.9-.2,27.78,27.78,0,0,0,22.7-15.8c6.6-14.3,13.7-29.5,22.1-44.2,0-.1.1-.1.1-.2l44.4-92.6A23.1,23.1,0,0,0,319.8,138.2Z" fill="#303d4c"/>
    </g>
    <rect width="400" height="400" fill="none"/>
    <g>
      <line x1="114" y1="145.6" x2="118.5" y2="141.1" fill="none"/>
      <path d="M114,148.5a2.85,2.85,0,0,1-2-4.9l4.5-4.5a2.9,2.9,0,1,1,4.1,4.1l-4.5,4.5A3.44,3.44,0,0,1,114,148.5Z" fill="#303d4c"/>
    </g>
    <g>
      <line x1="90" y1="207.5" x2="94.5" y2="203" fill="none"/>
      <path d="M90,210.4a2.85,2.85,0,0,1-2-4.9l4.5-4.5a2.9,2.9,0,0,1,4.1,4.1l-4.5,4.5A3.44,3.44,0,0,1,90,210.4Z" fill="#303d4c"/>
    </g>
    <g>
      <line x1="122" y1="203.5" x2="126.5" y2="199" fill="none"/>
      <path d="M122,206.4a2.85,2.85,0,0,1-2-4.9l4.5-4.5a2.9,2.9,0,0,1,4.1,4.1l-4.5,4.5A3.44,3.44,0,0,1,122,206.4Z" fill="#303d4c"/>
    </g>
    <g>
      <line x1="154" y1="208.5" x2="158.5" y2="204" fill="none"/>
      <path d="M154,211.4a2.85,2.85,0,0,1-2-4.9l4.5-4.5a2.9,2.9,0,0,1,4.1,4.1l-4.5,4.5A3.44,3.44,0,0,1,154,211.4Z" fill="#303d4c"/>
    </g>
    <g>
      <line x1="218" y1="208.5" x2="222.5" y2="204" fill="none"/>
      <path d="M218,211.4a2.85,2.85,0,0,1-2-4.9l4.5-4.5a2.9,2.9,0,0,1,4.1,4.1l-4.5,4.5A3.44,3.44,0,0,1,218,211.4Z" fill="#303d4c"/>
    </g>
    <g>
      <line x1="244" y1="208.5" x2="248.5" y2="204" fill="none"/>
      <path d="M244,211.4a2.85,2.85,0,0,1-2-4.9l4.5-4.5a2.9,2.9,0,0,1,4.1,4.1l-4.5,4.5A3.44,3.44,0,0,1,244,211.4Z" fill="#303d4c"/>
    </g>
    <g>
      <line x1="246" y1="270.3" x2="250.5" y2="265.8" fill="none"/>
      <path d="M246,273.2a2.85,2.85,0,0,1-2-4.9l4.5-4.5a2.9,2.9,0,0,1,4.1,4.1l-4.5,4.5A3.44,3.44,0,0,1,246,273.2Z" fill="#303d4c"/>
    </g>
    <g>
      <line x1="264" y1="165.6" x2="268.5" y2="161.1" fill="none"/>
      <path d="M264,168.5a2.85,2.85,0,0,1-2-4.9l4.5-4.5a2.9,2.9,0,1,1,4.1,4.1l-4.5,4.5A3.44,3.44,0,0,1,264,168.5Z" fill="#303d4c"/>
    </g>
    <g>
      <line x1="281" y1="213.5" x2="285.5" y2="209" fill="none"/>
      <path d="M281,216.3a2.85,2.85,0,0,1-2-4.9l4.5-4.5a2.9,2.9,0,0,1,4.1,4.1l-4.5,4.5A2.93,2.93,0,0,1,281,216.3Z" fill="#303d4c"/>
    </g>
    <g>
      <line x1="187" y1="203.5" x2="191.5" y2="199" fill="none"/>
      <path d="M187,206.4a2.85,2.85,0,0,1-2-4.9l4.5-4.5a2.9,2.9,0,0,1,4.1,4.1l-4.5,4.5A3.44,3.44,0,0,1,187,206.4Z" fill="#303d4c"/>
    </g>
    <g>
      <line x1="254" y1="186.5" x2="258.5" y2="182" fill="none"/>
      <path d="M254,189.4a2.85,2.85,0,0,1-2-4.9l4.5-4.5a2.9,2.9,0,0,1,4.1,4.1l-4.5,4.5A3.44,3.44,0,0,1,254,189.4Z" fill="#303d4c"/>
    </g>
    <g>
      <line x1="261" y1="228.4" x2="265.5" y2="223.9" fill="none"/>
      <path d="M261,231.3a2.85,2.85,0,0,1-2-4.9l4.5-4.5a2.9,2.9,0,0,1,4.1,4.1l-4.5,4.5A3.44,3.44,0,0,1,261,231.3Z" fill="#303d4c"/>
    </g>
    <g>
      <line x1="274" y1="145.6" x2="278.5" y2="141.1" fill="none"/>
      <path d="M274,148.5a2.85,2.85,0,0,1-2-4.9l4.5-4.5a2.9,2.9,0,1,1,4.1,4.1l-4.5,4.5A3.44,3.44,0,0,1,274,148.5Z" fill="#303d4c"/>
    </g>
    <g>
      <line x1="296" y1="172.6" x2="300.5" y2="168.1" fill="none"/>
      <path d="M296,175.4a2.85,2.85,0,0,1-2-4.9l4.5-4.5a2.9,2.9,0,0,1,4.1,4.1l-4.5,4.5A2.93,2.93,0,0,1,296,175.4Z" fill="#303d4c"/>
    </g>
    <g>
      <line x1="259" y1="115.7" x2="263.5" y2="111.2" fill="none"/>
      <path d="M259,118.6a2.85,2.85,0,0,1-2-4.9l4.5-4.5a2.9,2.9,0,0,1,4.1,4.1l-4.5,4.5A3.44,3.44,0,0,1,259,118.6Z" fill="#303d4c"/>
    </g>
    <g>
      <line x1="229" y1="180.5" x2="233.5" y2="176.1" fill="none"/>
      <path d="M229,183.4a2.85,2.85,0,0,1-2-4.9l4.5-4.5a2.9,2.9,0,0,1,4.1,4.1l-4.5,4.5A3.44,3.44,0,0,1,229,183.4Z" fill="#303d4c"/>
    </g>
    <g>
      <line x1="246" y1="155.6" x2="250.5" y2="151.1" fill="none"/>
      <path d="M246,158.5a2.85,2.85,0,0,1-2-4.9l4.5-4.5a2.9,2.9,0,0,1,4.1,4.1l-4.5,4.5A3.44,3.44,0,0,1,246,158.5Z" fill="#303d4c"/>
    </g>
    <g>
      <line x1="288" y1="117.7" x2="292.5" y2="113.2" fill="none"/>
      <path d="M288,120.6a2.85,2.85,0,0,1-2-4.9l4.5-4.5a2.9,2.9,0,0,1,4.1,4.1l-4.5,4.5A3.44,3.44,0,0,1,288,120.6Z" fill="#303d4c"/>
    </g>
    <g>
      <line x1="286" y1="92.8" x2="290.5" y2="88.3" fill="none"/>
      <path d="M286,95.6a2.85,2.85,0,0,1-2-4.9l4.5-4.5a2.9,2.9,0,0,1,4.1,4.1l-4.5,4.5A2.93,2.93,0,0,1,286,95.6Z" fill="#303d4c"/>
    </g>
    <g>
      <line x1="136" y1="132.7" x2="140.5" y2="128.2" fill="none"/>
      <path d="M136,135.5a2.85,2.85,0,0,1-2-4.9l4.5-4.5a2.9,2.9,0,0,1,4.1,4.1l-4.5,4.5A2.93,2.93,0,0,1,136,135.5Z" fill="#303d4c"/>
    </g>
    <g>
      <line x1="173" y1="132.7" x2="177.5" y2="128.2" fill="none"/>
      <path d="M173,135.5a2.85,2.85,0,0,1-2-4.9l4.5-4.5a2.9,2.9,0,0,1,4.1,4.1l-4.5,4.5A2.93,2.93,0,0,1,173,135.5Z" fill="#303d4c"/>
    </g>
    <g>
      <line x1="213" y1="132.7" x2="217.5" y2="128.2" fill="none"/>
      <path d="M213,135.5a2.85,2.85,0,0,1-2-4.9l4.5-4.5a2.9,2.9,0,0,1,4.1,4.1l-4.5,4.5A2.93,2.93,0,0,1,213,135.5Z" fill="#303d4c"/>
    </g>
    <g>
      <line x1="124" y1="123.7" x2="128.5" y2="119.2" fill="none"/>
      <path d="M124,126.6a2.85,2.85,0,0,1-2-4.9l4.5-4.5a2.9,2.9,0,0,1,4.1,4.1l-4.5,4.5A3.44,3.44,0,0,1,124,126.6Z" fill="#303d4c"/>
    </g>
    <g>
      <line x1="158" y1="123.7" x2="162.5" y2="119.2" fill="none"/>
      <path d="M158,126.6a2.85,2.85,0,0,1-2-4.9l4.5-4.5a2.9,2.9,0,0,1,4.1,4.1l-4.5,4.5A3.44,3.44,0,0,1,158,126.6Z" fill="#303d4c"/>
    </g>
    <g>
      <line x1="143" y1="147.6" x2="147.5" y2="143.1" fill="none"/>
      <path d="M143,150.5a2.85,2.85,0,0,1-2-4.9l4.5-4.5a2.9,2.9,0,0,1,4.1,4.1l-4.5,4.5A3.44,3.44,0,0,1,143,150.5Z" fill="#303d4c"/>
    </g>
    <g>
      <line x1="198" y1="123.7" x2="202.5" y2="119.2" fill="none"/>
      <path d="M198,126.6a2.85,2.85,0,0,1-2-4.9l4.5-4.5a2.9,2.9,0,0,1,4.1,4.1l-4.5,4.5A3.44,3.44,0,0,1,198,126.6Z" fill="#303d4c"/>
    </g>
    <g>
      <line x1="148" y1="112.7" x2="152.5" y2="108.2" fill="none"/>
      <path d="M148,115.6a2.85,2.85,0,0,1-2-4.9l4.5-4.5a2.9,2.9,0,0,1,4.1,4.1l-4.5,4.5A3.44,3.44,0,0,1,148,115.6Z" fill="#303d4c"/>
    </g>
    <g>
      <line x1="185" y1="112.7" x2="189.5" y2="108.2" fill="none"/>
      <path d="M185,115.6a2.85,2.85,0,0,1-2-4.9l4.5-4.5a2.9,2.9,0,0,1,4.1,4.1l-4.5,4.5A3.44,3.44,0,0,1,185,115.6Z" fill="#303d4c"/>
    </g>
    <g>
      <line x1="225" y1="112.7" x2="229.5" y2="108.2" fill="none"/>
      <path d="M225,115.6a2.85,2.85,0,0,1-2-4.9l4.5-4.5a2.9,2.9,0,0,1,4.1,4.1l-4.5,4.5A3.44,3.44,0,0,1,225,115.6Z" fill="#303d4c"/>
    </g>
    <g>
      <line x1="136" y1="103.7" x2="140.5" y2="99.3" fill="none"/>
      <path d="M136,106.6a2.85,2.85,0,0,1-2-4.9l4.5-4.5a2.9,2.9,0,0,1,4.1,4.1l-4.5,4.5A3.44,3.44,0,0,1,136,106.6Z" fill="#303d4c"/>
    </g>
    <g>
      <line x1="170" y1="103.7" x2="174.5" y2="99.3" fill="none"/>
      <path d="M170,106.6a2.85,2.85,0,0,1-2-4.9l4.5-4.5a2.9,2.9,0,0,1,4.1,4.1l-4.5,4.5A3.44,3.44,0,0,1,170,106.6Z" fill="#303d4c"/>
    </g>
    <g>
      <line x1="210" y1="103.7" x2="214.5" y2="99.3" fill="none"/>
      <path d="M210,106.6a2.85,2.85,0,0,1-2-4.9l4.5-4.5a2.9,2.9,0,0,1,4.1,4.1l-4.5,4.5A3.44,3.44,0,0,1,210,106.6Z" fill="#303d4c"/>
    </g>
    <g>
      <line x1="183" y1="147.6" x2="187.5" y2="143.1" fill="none"/>
      <path d="M183,150.5a2.85,2.85,0,0,1-2-4.9l4.5-4.5a2.9,2.9,0,0,1,4.1,4.1l-4.5,4.5A3.44,3.44,0,0,1,183,150.5Z" fill="#303d4c"/>
    </g>
  </g>
</svg>
