<svg xmlns="http://www.w3.org/2000/svg" xmlns:xlink="http://www.w3.org/1999/xlink" viewBox="0 0 400 400">
  <defs>
    <clipPath id="a">
      <path d="M255,108.2c0,29.5-24,54.4-53.5,54.4S147,137.7,147,108.2s25-53.4,54.5-53.4A53.54,53.54,0,0,1,255,108.2Z" fill="none"/>
    </clipPath>
  </defs>
  <title>basketball</title>
  <g>
    <rect width="400" height="400" fill="none"/>
    <g>
      <path d="M201.8,225.8a415,415,0,0,1-43.5-2c-17.1-1.9-20.4-4.3-20.4-7.7s3.3-5.8,20.4-7.7a413.62,413.62,0,0,1,43.5-2,415,415,0,0,1,43.5,2c17.1,1.9,20.4,4.3,20.4,7.7s-3.3,5.8-20.4,7.7C233.6,225,218.2,225.8,201.8,225.8ZM146.6,216c7.8,1.9,27.4,4,55.2,4s47.4-2,55.2-4c-7.8-1.9-27.4-4-55.2-4S154.3,214.1,146.6,216Zm113.8,1.3Z" fill="#303d4c"/>
      <path d="M178.8,323.7h0a1.79,1.79,0,0,1-1.8-1.8c0-13.8-6.4-26.7-12.6-39.3-2.1-4.3-4.3-8.7-6.2-13-6-12.2-10-25-14-37.3-1.6-5.1-3.3-10.3-5.1-15.5a1.8,1.8,0,1,1,3.4-1.2c1.8,5.2,3.5,10.5,5.1,15.6,4.1,12.8,7.9,24.8,13.8,36.9,1.9,4.4,4.1,8.7,6.2,13,6.4,12.9,13.1,26.3,13,40.9A1.77,1.77,0,0,1,178.8,323.7Z" fill="#303d4c"/>
      <path d="M225.2,323.7a1.79,1.79,0,0,1-1.8-1.8c0-14.6,6.6-28,13-40.9,2.1-4.2,4.3-8.6,6.1-12.9,5.9-12.1,9.8-24.2,13.8-36.9q2.4-7.65,5.1-15.6a1.8,1.8,0,1,1,3.4,1.2c-1.8,5.2-3.5,10.4-5.1,15.5-3.9,12.3-8,25.1-14,37.4-1.9,4.3-4.1,8.7-6.2,13-6.2,12.6-12.7,25.6-12.6,39.3a1.63,1.63,0,0,1-1.7,1.7Z" fill="#303d4c"/>
      <path d="M153.3,252.9a1.27,1.27,0,0,1-.6-.1,1.82,1.82,0,0,1-1.1-2.3c2-5.9,5.6-10.9,9.1-15.7,3.1-4.4,6.1-8.5,7.9-13.1a1.77,1.77,0,0,1,3.3,1.3c-2,5-5.2,9.5-8.3,13.9-3.3,4.6-6.8,9.4-8.6,14.8A2,2,0,0,1,153.3,252.9Z" fill="#303d4c"/>
      <path d="M160.9,274h-.3a1.74,1.74,0,0,1-1.4-2.1c1.4-7.5,6.1-13.6,10.5-19.5,1.4-1.8,2.8-3.7,4.1-5.5a131.66,131.66,0,0,0,10.3-16.7c1.3-2.3,2.6-4.6,3.9-7a1.71,1.71,0,0,1,2.5-.6,1.82,1.82,0,0,1,.7,2.5l-3.9,6.9a148.52,148.52,0,0,1-10.5,17.1c-1.3,1.8-2.7,3.8-4.1,5.6-4.2,5.6-8.6,11.3-9.9,18A2.22,2.22,0,0,1,160.9,274Z" fill="#303d4c"/>
      <path d="M170.3,290.2h-.4a1.74,1.74,0,0,1-1.4-2.1c2-9.9,8.3-18,14.4-25.8,1.9-2.4,3.8-4.9,5.6-7.4,5.6-7.2,9.8-14.6,14.2-22.3,1.7-3,3.5-6.2,5.4-9.3a1.82,1.82,0,0,1,3.1,1.9c-1.8,3.1-3.6,6.2-5.3,9.2-4.3,7.6-8.8,15.4-14.4,22.7-1.7,2.5-3.7,5-5.6,7.4-5.8,7.5-11.8,15.2-13.7,24.3A2.15,2.15,0,0,1,170.3,290.2Z" fill="#303d4c"/>
      <path d="M177,308.4h-.4a1.79,1.79,0,0,1-1.4-2.1c2.7-12.8,10.8-23.2,18.7-33.3,2.5-3.1,5-6.4,7.3-9.6,7.3-9.3,12.8-18.9,18.6-29,2.3-3.9,4.6-8,7-12a1.88,1.88,0,0,1,2.5-.6,1.79,1.79,0,0,1,.6,2.5c-2.4,4-4.7,8-7,12-5.6,9.8-11.4,19.9-18.8,29.4-2.3,3.2-4.8,6.5-7.3,9.6-7.6,9.7-15.5,19.8-18,31.8A2,2,0,0,1,177,308.4Z" fill="#303d4c"/>
      <path d="M186.8,325h-.3a1.74,1.74,0,0,1-1.4-2.1c2.9-15.4,12.5-28.1,21.8-40.4,2.9-3.9,5.9-7.8,8.6-11.8,8.6-11.5,15-23.2,21.8-35.6,2.6-4.8,5.4-9.8,8.2-14.7a1.84,1.84,0,1,1,3.2,1.8c-2.8,4.9-5.6,9.9-8.2,14.7-6.6,12-13.4,24.3-22.1,35.9-2.7,4-5.7,8-8.7,11.9-9,12-18.4,24.3-21.2,38.9A1.65,1.65,0,0,1,186.8,325Z" fill="#303d4c"/>
      <path d="M205.1,325h-.3a1.74,1.74,0,0,1-1.4-2.1c2.6-13.4,10.9-24.4,19-35.1,2.5-3.3,5.1-6.8,7.5-10.2,7.5-9.9,13-20,18.9-30.8,2.3-4.2,4.7-8.5,7.2-12.8a1.84,1.84,0,0,1,3.2,1.8c-2.5,4.2-4.8,8.5-7.1,12.7-5.7,10.4-11.6,21.1-19.1,31.1-2.3,3.4-5,6.9-7.5,10.3-7.8,10.3-15.9,21-18.3,33.6A2.48,2.48,0,0,1,205.1,325Z" fill="#303d4c"/>
      <path d="M249.8,252.9a2,2,0,0,1-1.7-1.2c-1.8-5.4-5.3-10.2-8.6-14.8-3.1-4.4-6.3-8.9-8.3-13.9a1.77,1.77,0,1,1,3.3-1.3c1.8,4.6,4.8,8.8,7.9,13.1,3.5,4.8,7.1,9.9,9.1,15.7a1.87,1.87,0,0,1-1.1,2.3C250.2,252.8,250,252.9,249.8,252.9Z" fill="#303d4c"/>
      <path d="M242.2,274a1.9,1.9,0,0,1-1.8-1.5c-1.3-6.7-5.6-12.4-9.9-18q-2.1-2.7-4.2-5.7a139.38,139.38,0,0,1-10.5-17q-1.8-3.45-3.9-6.9a1.82,1.82,0,0,1,.7-2.5,1.88,1.88,0,0,1,2.5.6c1.4,2.3,2.7,4.7,3.9,7,3.2,5.8,6.2,11.3,10.3,16.6,1.3,1.9,2.7,3.8,4.1,5.6,4.5,5.9,9.1,12,10.5,19.5a1.82,1.82,0,0,1-1.4,2.1C242.4,274,242.3,274,242.2,274Z" fill="#303d4c"/>
      <path d="M233.3,293.5a1.9,1.9,0,0,1-1.8-1.5c-1.8-9.5-7.9-17.7-13.8-25.5-1.9-2.6-4-5.2-5.8-7.9-5.7-7.7-10.2-15.9-14.6-23.8-1.7-3.2-3.5-6.5-5.4-9.7a1.84,1.84,0,1,1,3.2-1.8c1.9,3.3,3.7,6.6,5.4,9.8,4.5,8.2,8.7,15.9,14.3,23.5,1.8,2.7,3.8,5.3,5.7,7.9,6.2,8.2,12.6,16.7,14.5,27a1.82,1.82,0,0,1-1.4,2.1A.37.37,0,0,0,233.3,293.5Z" fill="#303d4c"/>
      <path d="M227,308.4a1.92,1.92,0,0,1-1.8-1.4c-2.6-12-10.6-22.1-18.4-31.8-2.5-3.1-5.1-6.4-7.5-9.7-7.4-9.4-13.4-19.5-19.1-29.3-2.3-3.9-4.7-8-7.1-12a1.82,1.82,0,1,1,3.1-1.9c2.5,4,4.9,8.1,7.2,12,5.9,10.1,11.5,19.7,18.9,28.9,2.4,3.3,4.9,6.5,7.4,9.6,8,10.1,16.3,20.5,19.1,33.3a1.74,1.74,0,0,1-1.4,2.1C227.3,308.4,227.2,308.4,227,308.4Z" fill="#303d4c"/>
      <path d="M216.3,325a1.9,1.9,0,0,1-1.8-1.5c-2.8-14.6-12.1-27-21.2-38.9-2.9-3.9-6-7.9-8.7-11.9-8.7-11.5-15.5-23.9-22-35.9-2.6-4.8-5.4-9.8-8.2-14.7a1.84,1.84,0,1,1,3.2-1.8c2.9,4.9,5.6,9.9,8.2,14.8,6.8,12.4,13.2,24.1,21.8,35.5,2.8,4,5.8,8,8.7,11.9,9.3,12.3,18.9,25,21.8,40.4a1.82,1.82,0,0,1-1.4,2.1Z" fill="#303d4c"/>
      <path d="M198,325a1.9,1.9,0,0,1-1.8-1.5c-2.3-12-10-22.3-17.5-32.2-2.4-3.2-5-6.6-7.2-9.9-7.2-9.6-12.8-19.8-18.3-29.8-2.2-4-4.5-8.1-6.8-12.2a1.84,1.84,0,1,1,3.2-1.8c2.4,4.1,4.6,8.2,6.8,12.2,5.6,10.3,11,20,18.1,29.4,2.3,3.3,4.8,6.6,7.2,9.8,7.7,10.2,15.7,20.8,18.2,33.7a1.82,1.82,0,0,1-1.4,2.1C198.2,325,198.1,325,198,325Z" fill="#303d4c"/>
    </g>
    <path d="M201.4,167.8a58.49,58.49,0,0,1-18.9-3.1,59.44,59.44,0,1,1,75.4-37.5h0a59.76,59.76,0,0,1-56.5,40.6Zm0-113.1a53.69,53.69,0,1,0,24,101.7,53.71,53.71,0,0,0-24-101.7Zm53.7,71.6Z" fill="#303d4c"/>
    <g clip-path="url(#a)">
      <g>
        <path d="M250.9,173.8a2.77,2.77,0,0,1-.9-.1c-14.2-4.7-26-13.6-33.4-25-7.5-11.6-9.5-24.4-5.6-36,8-23.8,38.4-35.2,67.9-25.4a2.85,2.85,0,0,1-1.8,5.4c-26.4-8.8-53.6,1-60.6,21.8-3.3,10-1.6,21,4.9,31.1,6.7,10.3,17.4,18.3,30.3,22.6a2.83,2.83,0,0,1,1.8,3.6A2.43,2.43,0,0,1,250.9,173.8Z" fill="#303d4c"/>
        <path d="M143.3,134.5a67.35,67.35,0,0,1-21.5-3.6,2.85,2.85,0,1,1,1.8-5.4c12.9,4.3,26.4,4.3,37.9.1,11.3-4.2,19.4-11.9,22.7-21.9s1.6-21-4.9-31.1C172.7,62.3,161.9,54.3,149,50a2.85,2.85,0,1,1,1.8-5.4c14.1,4.7,26,13.6,33.4,25,7.5,11.6,9.5,24.4,5.6,36s-13.2,20.7-26.2,25.5A59.67,59.67,0,0,1,143.3,134.5Z" fill="#303d4c"/>
        <g>
          <line x1="217.5" y1="58.3" x2="183.6" y2="159.3" fill="none"/>
          <path d="M183.6,162.2a2.77,2.77,0,0,1-.9-.1,2.83,2.83,0,0,1-1.8-3.6L214.8,57.4a2.85,2.85,0,0,1,5.4,1.8L186.3,160.3A2.79,2.79,0,0,1,183.6,162.2Z" fill="#303d4c"/>
        </g>
        <g>
          <line x1="140.1" y1="88.7" x2="260.3" y2="128.7" fill="none"/>
          <path d="M260.3,131.6a2.77,2.77,0,0,1-.9-.1L139.2,91.4A2.85,2.85,0,1,1,141,86l120.3,40a2.83,2.83,0,0,1,1.8,3.6A2.88,2.88,0,0,1,260.3,131.6Z" fill="#303d4c"/>
        </g>
      </g>
    </g>
    <g>
      <path d="M144.4,273.8H62.9V111.9h83.3c-.1-1.2-.1-2.5-.1-3.7a14.77,14.77,0,0,1,.1-2.1H60a2.9,2.9,0,0,0-2.9,2.9V276.6a2.9,2.9,0,0,0,2.9,2.9h84.4a2.9,2.9,0,0,0,2.9-2.9A2.82,2.82,0,0,0,144.4,273.8Z" fill="#303d4c"/>
      <path d="M344,106.2H256.9c0,.7.1,1.4.1,2.1,0,1.2-.1,2.5-.1,3.7h84.3V273.9h-81a2.9,2.9,0,1,0,0,5.8H344a2.9,2.9,0,0,0,2.9-2.9V109.1A2.9,2.9,0,0,0,344,106.2Z" fill="#303d4c"/>
    </g>
    <g>
      <path d="M308.8,134.8H249.9a56.45,56.45,0,0,1-3.8,5.7H306V245.2H270.5a2.9,2.9,0,0,0,0,5.8h38.4a2.9,2.9,0,0,0,2.9-2.9V137.6A3,3,0,0,0,308.8,134.8Z" fill="#303d4c"/>
      <path d="M134.3,245.2H95.4V140.5h60.5a43.46,43.46,0,0,1-3.8-5.7H92.6a2.9,2.9,0,0,0-2.9,2.9V248.2a2.9,2.9,0,0,0,2.9,2.9h41.7a2.9,2.9,0,0,0,2.9-2.9A3.06,3.06,0,0,0,134.3,245.2Z" fill="#303d4c"/>
    </g>
  </g>
</svg>
