<svg xmlns="http://www.w3.org/2000/svg" viewBox="0 0 400 400">
  <title>Artboard 1</title>
  <g>
    <rect width="400" height="400" fill="none"/>
    <path d="M171.2,280.4H88a2.9,2.9,0,0,1-2.9-2.9V111.2a33.44,33.44,0,0,1,33.4-33.3h171a11.71,11.71,0,0,1,11.7,11.7v41.1a13.14,13.14,0,0,1-13.1,13.1H193.3A19.29,19.29,0,0,0,174,163V277.5A2.82,2.82,0,0,1,171.2,280.4Zm-80.3-5.8h77.4V163a25,25,0,0,1,25-25h94.8a7.38,7.38,0,0,0,7.4-7.4v-41a6,6,0,0,0-6-6h-171a27.63,27.63,0,0,0-27.6,27.5Z" fill="#01b6ad"/>
    <path d="M298.4,305.7H88a2.9,2.9,0,0,1-2.9-2.9V288.3a2.9,2.9,0,0,1,2.9-2.9H298.4a2.9,2.9,0,0,1,2.9,2.9v14.5A2.84,2.84,0,0,1,298.4,305.7ZM90.9,300H295.5v-8.8H90.9Z" fill="#01b6ad"/>
    <path d="M207.1,183.2l-6.9-5.9a2.56,2.56,0,0,1,1.7-4.5h69a2.65,2.65,0,0,1,2.6,2.6v5.9a2.65,2.65,0,0,1-2.6,2.6H208.8A3.63,3.63,0,0,1,207.1,183.2Z" fill="#01b6ad"/>
    <path d="M271.1,280.1H210.2a26.29,26.29,0,0,1-21.9-11.6,29.78,29.78,0,0,1-3.4-26.4l2.7.9-2.7-.9,20.5-59.2a2.79,2.79,0,0,1,2.7-1.9h63a2.84,2.84,0,0,1,2.7,1.8l23.6,61.6a24.11,24.11,0,0,1-2.6,22.1l-1.3,1.8A27,27,0,0,1,271.1,280.1Zm-60.9-93.4L190.4,244h0a24,24,0,0,0,2.8,21.3,20.49,20.49,0,0,0,17.1,9.1h60.9a21.5,21.5,0,0,0,17.7-9.3l1.3-1.8a18.25,18.25,0,0,0,2-16.8l-22.9-59.7H210.2Z" fill="#01b6ad"/>
    <path d="M318,233.6a2.71,2.71,0,0,1-2.6-1.7l-20.1-45.1H270.9a2.9,2.9,0,0,1,0-5.8h26.3a2.87,2.87,0,0,1,2.6,1.7l20.9,46.9a2.93,2.93,0,0,1-1.5,3.8A5,5,0,0,1,318,233.6Z" fill="#01b6ad"/>
    <path d="M238.5,243.5h-49a2.9,2.9,0,1,1,0-5.8h49a2.9,2.9,0,0,1,2.9,2.9A3,3,0,0,1,238.5,243.5Z" fill="#01b6ad"/>
    <path d="M236.2,226.7H194.9a2.9,2.9,0,1,1,0-5.8h41.3a2.9,2.9,0,0,1,2.9,2.9A3,3,0,0,1,236.2,226.7Z" fill="#01b6ad"/>
    <path d="M263,158.5H212a9.9,9.9,0,1,1,0-19.8h51a9.9,9.9,0,1,1,0,19.8Zm-51-14a4.1,4.1,0,0,0,0,8.2h51a4.1,4.1,0,0,0,0-8.2Z" fill="#01b6ad"/>
    <path d="M129.6,246.4A20.4,20.4,0,1,1,150,226,20.36,20.36,0,0,1,129.6,246.4Zm0-35.5A15.1,15.1,0,1,0,144.8,226,15.17,15.17,0,0,0,129.6,210.9Z" fill="#01b6ad"/>
    <path d="M125.2,172.6H112a1.79,1.79,0,0,1-1.8-1.8V157.6a1.79,1.79,0,0,1,1.8-1.8h13.2a1.79,1.79,0,0,1,1.8,1.8v13.2A1.79,1.79,0,0,1,125.2,172.6ZM113.8,169h9.6v-9.6h-9.6Z" fill="#01b6ad"/>
    <path d="M146.6,172.6H133.4a1.79,1.79,0,0,1-1.8-1.8V157.6a1.79,1.79,0,0,1,1.8-1.8h13.2a1.79,1.79,0,0,1,1.8,1.8v13.2A1.79,1.79,0,0,1,146.6,172.6ZM135.2,169h9.6v-9.6h-9.6Z" fill="#01b6ad"/>
    <path d="M125.2,195.5H112a1.79,1.79,0,0,1-1.8-1.8V180.5a1.79,1.79,0,0,1,1.8-1.8h13.2a1.79,1.79,0,0,1,1.8,1.8v13.2A1.79,1.79,0,0,1,125.2,195.5ZM113.8,192h9.6v-9.6h-9.6Z" fill="#01b6ad"/>
    <path d="M146.6,195.5H133.4a1.79,1.79,0,0,1-1.8-1.8V180.5a1.79,1.79,0,0,1,1.8-1.8h13.2a1.79,1.79,0,0,1,1.8,1.8v13.2A1.79,1.79,0,0,1,146.6,195.5ZM135.2,192h9.6v-9.6h-9.6Z" fill="#01b6ad"/>
    <path d="M189,254.4H294s3,8,0,10-11,12.9-17,12.9H205S187,275.3,189,254.4Z" fill="#01b6ad"/>
  </g>
</svg>
