<svg xmlns="http://www.w3.org/2000/svg" viewBox="0 0 400 400">
  <title>microwave</title>
  <g>
    <rect x="122.98" y="279.74" width="42.4" height="8" fill="#01b6ad"/>
    <rect x="244.98" y="279.74" width="42.4" height="8" fill="#01b6ad"/>
    <path d="M323.5,281.7H80.5a42.93,42.93,0,0,1-42.9-42.8V139.1A42.87,42.87,0,0,1,80.5,96.3h243a42.93,42.93,0,0,1,42.9,42.8v99.8A42.93,42.93,0,0,1,323.5,281.7ZM80.5,102.1a37.07,37.07,0,0,0-37.1,37v99.8a37.13,37.13,0,0,0,37.1,37h243a37.07,37.07,0,0,0,37.1-37V139.1a37.13,37.13,0,0,0-37.1-37H80.5Z" fill="#01b6ad"/>
    <path d="M273,282.2a2.9,2.9,0,0,1-2.9-2.9V99.8a2.9,2.9,0,1,1,5.8,0V279.4A2.88,2.88,0,0,1,273,282.2Z" fill="#01b6ad"/>
    <rect x="218.02" y="150.65" width="5.7" height="85" fill="#01b6ad"/>
    <path d="M243,252.2H75a2.9,2.9,0,0,1-2.9-2.9V129.7a2.9,2.9,0,0,1,2.9-2.9H243a2.9,2.9,0,0,1,2.9,2.9V249.4A2.82,2.82,0,0,1,243,252.2ZM77.9,246.5H240.1v-114H77.9Z" fill="#01b6ad"/>
    <path d="M345,153.5H289a2.9,2.9,0,0,1-2.9-2.9V129.7a2.9,2.9,0,0,1,2.9-2.9h56a2.9,2.9,0,0,1,2.9,2.9v20.9A2.9,2.9,0,0,1,345,153.5Zm-53.1-5.7h50.2V132.6H291.9Z" fill="#01b6ad"/>
    <path d="M317.5,256.2a22.3,22.3,0,1,1,22.4-22.3A22.41,22.41,0,0,1,317.5,256.2Zm0-38.9a16.6,16.6,0,1,0,16.6,16.6A16.56,16.56,0,0,0,317.5,217.3Z" fill="#01b6ad"/>
    <path d="M302.2,178.6H289a1.79,1.79,0,0,1-1.8-1.8V163.6a1.79,1.79,0,0,1,1.8-1.8h13.2a1.79,1.79,0,0,1,1.8,1.8v13.2A1.79,1.79,0,0,1,302.2,178.6ZM290.8,175h9.6v-9.6h-9.6Z" fill="#01b6ad"/>
    <path d="M323.6,178.6H310.4a1.79,1.79,0,0,1-1.8-1.8V163.6a1.79,1.79,0,0,1,1.8-1.8h13.2a1.79,1.79,0,0,1,1.8,1.8v13.2A1.79,1.79,0,0,1,323.6,178.6ZM312.2,175h9.6v-9.6h-9.6Z" fill="#01b6ad"/>
    <path d="M345,178.6H331.8a1.79,1.79,0,0,1-1.8-1.8V163.6a1.79,1.79,0,0,1,1.8-1.8H345a1.79,1.79,0,0,1,1.8,1.8v13.2A1.79,1.79,0,0,1,345,178.6ZM333.6,175h9.6v-9.6h-9.6Z" fill="#01b6ad"/>
    <path d="M302.2,201.5H289a1.79,1.79,0,0,1-1.8-1.8V186.5a1.79,1.79,0,0,1,1.8-1.8h13.2a1.79,1.79,0,0,1,1.8,1.8v13.2A1.79,1.79,0,0,1,302.2,201.5Zm-11.4-3.6h9.6v-9.6h-9.6Z" fill="#01b6ad"/>
    <path d="M323.6,201.5H310.4a1.79,1.79,0,0,1-1.8-1.8V186.5a1.79,1.79,0,0,1,1.8-1.8h13.2a1.79,1.79,0,0,1,1.8,1.8v13.2A1.79,1.79,0,0,1,323.6,201.5Zm-11.4-3.6h9.6v-9.6h-9.6Z" fill="#01b6ad"/>
    <path d="M345,201.5H331.8a1.79,1.79,0,0,1-1.8-1.8V186.5a1.79,1.79,0,0,1,1.8-1.8H345a1.79,1.79,0,0,1,1.8,1.8v13.2A1.79,1.79,0,0,1,345,201.5Zm-11.4-3.6h9.6v-9.6h-9.6Z" fill="#01b6ad"/>
    <rect width="400" height="400" fill="none"/>
  </g>
</svg>
