<svg xmlns="http://www.w3.org/2000/svg" viewBox="0 0 400 400">
  <title>painting</title>
  <g>
    <path d="M151.7,73.4a2.68,2.68,0,0,1-2.3-1.2,3,3,0,0,1,.6-4l48.3-35a3,3,0,0,1,3.4,0l46.7,35a2.86,2.86,0,1,1-3.4,4.6L200,39.1,153.4,72.9A3.69,3.69,0,0,1,151.7,73.4Z" fill="#01b6ad"/>
    <path d="M306,341H93a2.9,2.9,0,0,1-2.9-2.9V70.8A2.9,2.9,0,0,1,93,67.9H306a2.9,2.9,0,0,1,2.9,2.9V338.1A2.9,2.9,0,0,1,306,341ZM95.9,335.3H303.1V73.7H95.9Z" fill="#01b6ad"/>
    <path d="M286,321.1H113a2.9,2.9,0,0,1-2.9-2.9V89.8a2.9,2.9,0,0,1,2.9-2.9H286a2.9,2.9,0,0,1,2.9,2.9V318.2A2.9,2.9,0,0,1,286,321.1Zm-170.1-5.8H283.1V92.6H115.9Z" fill="#01b6ad"/>
    <path d="M181,183.4a25.8,25.8,0,1,1,25.9-25.8A25.88,25.88,0,0,1,181,183.4Zm0-45.9a20.1,20.1,0,1,0,20.1,20.1A20.1,20.1,0,0,0,181,137.5Z" fill="#01b6ad"/>
    <path d="M113,260.2a2.57,2.57,0,0,1-1.8-.7,2.85,2.85,0,0,1-.4-4l39-46.9a2.7,2.7,0,0,1,2.2-1h0a2.66,2.66,0,0,1,2.2,1.1l35.9,44.2,65.7-74.3a3.72,3.72,0,0,1,2.2-1,3.21,3.21,0,0,1,2.2,1l28,32.9a2.84,2.84,0,0,1-.3,4,3,3,0,0,1-4.1-.3L258,184.9l-65.8,74.3a3.21,3.21,0,0,1-2.2,1,3,3,0,0,1-2.2-1.1L152,215l-36.8,44.2A2.84,2.84,0,0,1,113,260.2Z" fill="#01b6ad"/>
    <rect width="400" height="400" fill="none"/>
  </g>
</svg>
