<svg xmlns="http://www.w3.org/2000/svg" viewBox="0 0 400 400">
  <title>pillows</title>
  <g>
    <g>
      <path d="M161.8,259.9c-39.2-2.7-51.4-10-51.5-10.1a3,3,0,0,0-1.6-.5h-30L86,232a2.8,2.8,0,0,0,0-2.2c-.2-.5-20.4-49.3,0-103a3,3,0,0,0,0-2.1l-7.3-17.4h30a3.71,3.71,0,0,0,1.5-.4c.2-.1,18.6-11.1,82.9-11.1h10c64.3,0,82.7,11,82.9,11.1a3,3,0,0,0,1.6.5h30l-7.3,17.4a2.8,2.8,0,0,0,0,2.2c.2.4,13.6,34.3,6.2,78.4a46.36,46.36,0,0,1,5.5,2.2c7.5-42.2-3.5-75.1-5.9-81.7l8.5-20.3a2.64,2.64,0,0,0-.3-2.7,2.81,2.81,0,0,0-2.4-1.3H288.4C284.2,99.4,263.1,90,203.2,90h-10c-59.9,0-81,9.3-85.2,11.6H74.4a2.81,2.81,0,0,0-2.4,1.3,3.2,3.2,0,0,0-.3,2.7l8.5,20.3c-19.1,51.5-3.1,97.2,0,105.1l-8.5,20.3A2.64,2.64,0,0,0,72,254a2.81,2.81,0,0,0,2.4,1.3H108c3.4,1.8,17.6,8.1,53.9,10.6C161.8,263.8,161.8,261.9,161.8,259.9Z" fill="#01b6ad"/>
      <path d="M258.8,330.2h-7.5c-44.3,0-60.5-6.8-64.2-8.7h-25a2.81,2.81,0,0,1-2.4-1.3,3.2,3.2,0,0,1-.3-2.7l6.3-15c-2.6-6.7-14.1-40.7,0-78.9l-6.3-15a2.64,2.64,0,0,1,.3-2.7,2.81,2.81,0,0,1,2.4-1.3h25c3.6-1.9,19.9-8.7,64.2-8.7h7.5c44.3,0,60.5,6.8,64.2,8.7h25a2.81,2.81,0,0,1,2.4,1.3,3.2,3.2,0,0,1,.3,2.7l-6.3,15c2.4,6.5,13,39.5,0,78.8l6.3,15.1a2.64,2.64,0,0,1-.3,2.7,2.81,2.81,0,0,1-2.4,1.3H323C319.3,323.4,303.1,330.2,258.8,330.2Zm-92.4-14.4h21.4a3,3,0,0,1,1.6.5c.1.1,13.9,8.2,61.9,8.2h7.5c47.9,0,61.8-8.2,61.9-8.2a2.82,2.82,0,0,1,1.5-.4h21.4l-5.1-12.1a2.77,2.77,0,0,1-.1-2c14.2-41.5.2-76.6.1-77a2.8,2.8,0,0,1,0-2.2l5.1-12.1H322.2a3,3,0,0,1-1.6-.5c-.1-.1-13.9-8.2-61.9-8.2h-7.5c-47.9,0-61.8,8.2-61.9,8.2a2.82,2.82,0,0,1-1.5.4H166.4l5.1,12.1a2.56,2.56,0,0,1,0,2.1c-15.2,40-.2,76.5,0,76.8a2.8,2.8,0,0,1,0,2.2Z" fill="#01b6ad"/>
    </g>
    <rect width="400" height="400" fill="none"/>
  </g>
</svg>
