<svg xmlns="http://www.w3.org/2000/svg" viewBox="0 0 400 400">
  <title>plant</title>
  <g>
    <rect width="400" height="400" fill="none"/>
    <g>
      <g>
        <path d="M238.6,352h-73a27,27,0,0,1-26.9-23L129,266.6a27.17,27.17,0,0,1,26.9-31.4H245a27.29,27.29,0,0,1,27.1,30l-6.4,62.4A27.14,27.14,0,0,1,238.6,352ZM155.9,240.8a21.67,21.67,0,0,0-16.5,7.6,22,22,0,0,0-5,17.4l9.7,62.4a21.64,21.64,0,0,0,21.5,18.3h73A21.62,21.62,0,0,0,260.2,327l6.4-62.4a21.69,21.69,0,0,0-5.5-16.7,22,22,0,0,0-16.1-7.2H155.9Z" fill="#01b6ad"/>
        <path d="M263.9,319.2H139.1a2.71,2.71,0,0,1-2.7-2.4L132.3,289a2.86,2.86,0,0,1,.6-2.2,2.81,2.81,0,0,1,2.1-1H267.1a2.88,2.88,0,0,1,2.1.9,2.83,2.83,0,0,1,.7,2.1l-3.2,27.8A2.9,2.9,0,0,1,263.9,319.2Zm-122.4-5.5H261.4l2.6-22.3H138.2Z" fill="#01b6ad"/>
        <g>
          <path d="M246.9,141.4c-10.3-7.2-19.9-9.7-27.8-10.2a50.38,50.38,0,0,1,.7,5.6,49.18,49.18,0,0,1,23.9,9c18.5,12.9,20.8,29.1,21,34.8-5.8,1.1-23.3,3-39.5-8.2a50.9,50.9,0,0,1-9.6-8.7,41.86,41.86,0,0,1-2.8,5.2,56.24,56.24,0,0,0,9.2,8A57.2,57.2,0,0,0,255,187a54.24,54.24,0,0,0,13.2-1.5,2.78,2.78,0,0,0,2-2.4C270.4,182.2,272,158.8,246.9,141.4Z" fill="#01b6ad"/>
          <path d="M202.8,183a3,3,0,0,1-1.6-.5c-.8-.6-20.2-15-21.8-41.5s16.1-42.7,16.8-43.3a2.88,2.88,0,0,1,3.1-.4c.9.4,21.7,10.8,23.5,41.2s-17.6,43.6-18.5,44.1A2.6,2.6,0,0,1,202.8,183Zm-4.3-79.8c-3.9,4.3-14.8,17.9-13.6,37.5s13.5,32.2,17.9,36.1c4.3-3.6,15.7-15.5,14.4-38C216,116.5,203.2,106.2,198.5,103.2Z" fill="#01b6ad"/>
        </g>
      </g>
      <g>
        <path d="M212.3,113.4v-.5a2.7,2.7,0,0,0-2.3-2.7C210.8,111.2,211.5,112.3,212.3,113.4Z" fill="#01b6ad"/>
        <path d="M206.8,176.9v58.7H192.7v-66a55.45,55.45,0,0,1-5.5-9.4v78.1a2.8,2.8,0,0,0,2.8,2.8h19.7a2.8,2.8,0,0,0,2.8-2.8V170A52.12,52.12,0,0,1,206.8,176.9Z" fill="#01b6ad"/>
        <path d="M189.9,110.2h0a2.73,2.73,0,0,0-2.8,2.8v2.5A43.5,43.5,0,0,1,189.9,110.2Z" fill="#01b6ad"/>
      </g>
      <path d="M219.6,134.1c.7.1,1.5.1,2.3.2-.9-.8-1.8-1.5-2.6-2.3Z" fill="#01b6ad"/>
      <path d="M133.7,103.6a29.26,29.26,0,0,1,2.2-3.5,54.17,54.17,0,0,1-36.2-5c1.9-5.3,9.1-20.2,30.5-26.9,21.6-6.8,35.6,1.5,40,4.8-.6,1.1-1.4,2.7-2.6,4.6.7-.2,1.3-.3,2-.5a51.59,51.59,0,0,1,5.2-.9c.9-1.7,1.3-2.8,1.4-3a2.83,2.83,0,0,0-.7-3c-.7-.7-17.9-16.4-47-7.3S93.9,94.8,93.7,95.8a2.62,2.62,0,0,0,1.2,2.9,59.54,59.54,0,0,0,29.8,8.1,50,50,0,0,0,11.3-1.2C134.5,104.4,133.7,103.6,133.7,103.6Z" fill="#01b6ad"/>
      <path d="M130,137.5a55.4,55.4,0,0,1-30.3-5.9c1.9-5.3,9.1-20.2,30.5-26.9,1.2-.4,2.4-.7,3.6-1h0a45.76,45.76,0,0,1,4.3-6.4,81.19,81.19,0,0,0-9.6,2.2c-29.1,9.1-34.6,31.9-34.8,32.9a2.62,2.62,0,0,0,1.2,2.9,59.54,59.54,0,0,0,29.8,8.1c1.4,0,2.9-.1,4.3-.2A57.83,57.83,0,0,1,130,137.5Z" fill="#01b6ad"/>
      <g>
        <path d="M145.2,151.4a49.09,49.09,0,0,1,7.5-6.6,57.56,57.56,0,0,1-21.1.4c.2-5.3,2.3-19.9,17.6-32.3a37.57,37.57,0,0,1-5.7-2.4c-18.8,16.6-17.5,36.2-17.4,37.1a2.78,2.78,0,0,0,2,2.4,55.2,55.2,0,0,0,13.2,1.5A25.41,25.41,0,0,0,145.2,151.4Z" fill="#01b6ad"/>
        <path d="M182.2,134a50.87,50.87,0,0,1,1.7-10,49.59,49.59,0,0,1-10.2,11A55.68,55.68,0,0,1,182.2,134Z" fill="#01b6ad"/>
      </g>
      <path d="M186.9,159.9a47.07,47.07,0,0,1-12.6,12.6c-16.1,11.2-33.7,9.3-39.5,8.2.2-5.6,2.6-22,21-34.8,9.9-6.9,19.1-9,26.2-9.2a49.07,49.07,0,0,1,.4-5.5c-8.2.1-18.6,2.5-29.8,10.2-25,17.4-23.4,40.8-23.3,41.8a2.78,2.78,0,0,0,2,2.4,55.2,55.2,0,0,0,13.2,1.5,56.23,56.23,0,0,0,45.3-21.8C188.8,163.6,187.8,161.8,186.9,159.9Z" fill="#01b6ad"/>
      <path d="M195.3,63.8a42.48,42.48,0,0,0-6.5,12.7c1.6.2,3.1.6,4.5.9A54.65,54.65,0,0,1,195.3,63.8Z" fill="#01b6ad"/>
      <path d="M195,64.8a40.6,40.6,0,0,1,1.3-4.1,23.23,23.23,0,0,1,2.6.2,54.79,54.79,0,0,0-21.8-14c-28.6-10.5-46.9,4.2-47.7,4.8a2.62,2.62,0,0,0-.8,3,48.93,48.93,0,0,0,4.9,9.6,47.89,47.89,0,0,1,6-1.1,46.37,46.37,0,0,1-4.9-8.5c4.8-3.1,19.4-10.5,40.6-2.7C184.4,55.4,190.7,60.1,195,64.8Z" fill="#01b6ad"/>
      <path d="M246.9,105.9a48,48,0,0,0-7-4.2,44.17,44.17,0,0,1,1,6.9c.9.6,1.9,1.2,2.9,1.9,18.5,12.9,20.8,29.1,21,34.8a53.82,53.82,0,0,1-16.9.4,67.34,67.34,0,0,1,6.7,6h.5a54.24,54.24,0,0,0,13.2-1.5,2.78,2.78,0,0,0,2-2.4C270.4,146.6,272,123.2,246.9,105.9Z" fill="#01b6ad"/>
      <g>
        <path d="M236.9,92.2a64.77,64.77,0,0,1,2.8,8.5,49.43,49.43,0,0,1,8.4-1.3A45.91,45.91,0,0,1,236.9,92.2Z" fill="#01b6ad"/>
        <path d="M225.6,74.8c5.8-3.7,19.1-9.8,38.4-3.7,21.5,6.7,28.6,21.6,30.5,26.9a54.89,54.89,0,0,1-21.3,6,55.13,55.13,0,0,1,8.4,4.4,57.51,57.51,0,0,0,17.7-6.8,2.77,2.77,0,0,0,1.2-2.9c-.2-1-5.7-23.8-34.8-32.9-22.7-7.1-38.1.9-44.2,5.1A29.8,29.8,0,0,1,225.6,74.8Z" fill="#01b6ad"/>
      </g>
      <path d="M259.6,50.7a53.44,53.44,0,0,1-8.3,15.1,49.36,49.36,0,0,1,6.3.8,56.17,56.17,0,0,0,7.9-16.5,2.71,2.71,0,0,0-1.1-2.9c-.8-.6-20.4-13.5-47.9-.4a54.39,54.39,0,0,0-18.8,14.1,33.25,33.25,0,0,1,6.4,1.2,52.73,52.73,0,0,1,14.8-10.3C239.3,42,254.6,48.1,259.6,50.7Z" fill="#01b6ad"/>
      <path d="M303.3,132.3c-.2-1-5.7-23.8-34.8-32.9-12-3.8-21.9-3.3-29.6-1.4a42,42,0,0,1,1.3,5.4c6.8-1.7,15.8-2.2,26.6,1.2,21.6,6.7,28.6,21.6,30.5,26.9a54.47,54.47,0,0,1-30.9,5.9,57.84,57.84,0,0,1,1,5.7c1.7.1,3.3.2,4.9.2a59.68,59.68,0,0,0,29.9-8.1A2.71,2.71,0,0,0,303.3,132.3Z" fill="#01b6ad"/>
      <path d="M235.4,84.9c-14.8-26.6-38.2-27-39.1-27h0a3,3,0,0,0-2.6,1.7,54.9,54.9,0,0,0-3.3,17.1c2,.4,3.8.8,5.6,1.3a53.6,53.6,0,0,1,2.2-14.5c5.5.7,21.5,4.4,32.4,24s5.8,35.3,3.5,40.4a57.74,57.74,0,0,1-19.3-9.9,44.14,44.14,0,0,1,3.3,9.1,56.49,56.49,0,0,0,16.9,6.8h.5a2.81,2.81,0,0,0,2.4-1.3C238.5,131.8,250.3,111.5,235.4,84.9Z" fill="#01b6ad"/>
      <path d="M193.4,105a54.87,54.87,0,0,1-16.3,6.4c-22.1,4.8-35.6-4.6-39.8-8.3,3.2-5,13.7-19.1,32.9-23.3s34.4,4.4,39.3,7.6a39.14,39.14,0,0,1-9.9,13.2,44.07,44.07,0,0,1,4.5,3.3,42,42,0,0,0,11.4-16.7,2.67,2.67,0,0,0-.9-2.9c-.8-.6-19.5-15.5-45.5-9.8s-37.2,27-37.7,27.9a2.72,2.72,0,0,0,.4,3.1c.6.6,12,12.8,33.4,12.8a58.71,58.71,0,0,0,13.2-1.5,72.76,72.76,0,0,0,9.6-2.9A53.35,53.35,0,0,1,193.4,105Z" fill="#01b6ad"/>
    </g>
  </g>
</svg>
