<svg xmlns="http://www.w3.org/2000/svg" viewBox="0 0 400 400">
  <title>storage</title>
  <g>
    <path d="M197,195.4H93a2.9,2.9,0,0,1-2.9-2.9V88.8A2.9,2.9,0,0,1,93,85.9H197a2.9,2.9,0,0,1,2.9,2.9V192.5A2.9,2.9,0,0,1,197,195.4ZM95.9,189.6h98.2v-98H95.9Z" fill="#01b6ad"/>
    <path d="M300,195.4H196a2.9,2.9,0,0,1-2.9-2.9V88.8a2.9,2.9,0,0,1,2.9-2.9H300a2.9,2.9,0,0,1,2.9,2.9V192.5A2.9,2.9,0,0,1,300,195.4Zm-101.1-5.8h98.2v-98H198.9v98Z" fill="#01b6ad"/>
    <path d="M300,298.1H93a2.9,2.9,0,0,1-2.9-2.9V191.5a2.9,2.9,0,0,1,2.9-2.9H300a2.9,2.9,0,0,1,2.9,2.9V295.2A2.9,2.9,0,0,1,300,298.1ZM95.9,292.4H297.1v-98H95.9Z" fill="#01b6ad"/>
    <g>
      <path d="M118.9,134.7v-.5a9.6,9.6,0,0,1,9.6-9.6h31a9.6,9.6,0,0,1,9.6,9.6v.5h5.8v-.5a15.32,15.32,0,0,0-15.4-15.3h-31a15.39,15.39,0,0,0-15.4,15.3v.5Z" fill="#01b6ad"/>
      <path d="M169,183.4H119a2.79,2.79,0,0,1-2.8-2.3l-10-45.9a2.7,2.7,0,0,1,.6-2.4,2.79,2.79,0,0,1,2.2-1.1h72a3,3,0,0,1,2.3,1.1,3.12,3.12,0,0,1,.5,2.5l-12,45.9A2.88,2.88,0,0,1,169,183.4Zm-47.7-5.7h45.5l10.5-40.1H112.6Z" fill="#01b6ad"/>
    </g>
    <g>
      <path d="M222.9,134.7v-.5a9.6,9.6,0,0,1,9.6-9.6h31a9.6,9.6,0,0,1,9.6,9.6v.5h5.8v-.5a15.32,15.32,0,0,0-15.4-15.3h-31a15.39,15.39,0,0,0-15.4,15.3v.5Z" fill="#01b6ad"/>
      <path d="M272,183.4H222a2.79,2.79,0,0,1-2.8-2.3l-10-45.9a2.7,2.7,0,0,1,.6-2.4,2.79,2.79,0,0,1,2.2-1.1h72a3,3,0,0,1,2.3,1.1,3.12,3.12,0,0,1,.5,2.5l-12,45.9A2.88,2.88,0,0,1,272,183.4Zm-47.7-5.7h45.5l10.5-40.1H215.6Z" fill="#01b6ad"/>
    </g>
    <path d="M127,286.2H109a2.9,2.9,0,0,1-2.9-2.9V212.5a2.9,2.9,0,0,1,2.9-2.9h18a2.9,2.9,0,0,1,2.9,2.9v70.8A2.9,2.9,0,0,1,127,286.2Zm-15.1-5.8h12.2V215.3H111.9Z" fill="#01b6ad"/>
    <path d="M145,286.2H127a2.9,2.9,0,0,1-2.9-2.9V212.5a2.9,2.9,0,0,1,2.9-2.9h18a2.9,2.9,0,0,1,2.9,2.9v70.8A2.9,2.9,0,0,1,145,286.2Zm-15.1-5.8h12.2V215.3H129.9Z" fill="#01b6ad"/>
    <path d="M270,286.2H252a2.9,2.9,0,0,1-2.9-2.9V223.4a2.9,2.9,0,0,1,2.9-2.9h18a2.9,2.9,0,0,1,2.9,2.9v59.9A2.9,2.9,0,0,1,270,286.2Zm-15.1-5.8h12.2V226.3H254.9v54.1Z" fill="#01b6ad"/>
    <path d="M288,286.2H270a2.9,2.9,0,0,1-2.9-2.9V212.5a2.9,2.9,0,0,1,2.9-2.9h18a2.9,2.9,0,0,1,2.9,2.9v70.8A2.9,2.9,0,0,1,288,286.2Zm-15.1-5.8h12.2V215.3H272.9Z" fill="#01b6ad"/>
    <path d="M158,286.2H145a2.9,2.9,0,0,1-2.9-2.9V234.4a2.9,2.9,0,0,1,2.9-2.9h13a2.9,2.9,0,0,1,2.9,2.9v48.9A2.9,2.9,0,0,1,158,286.2Zm-10.1-5.8h7.2V237.3h-7.2Z" fill="#01b6ad"/>
    <path d="M252,286.2H203a2.9,2.9,0,0,1-2.9-2.9v-13a2.9,2.9,0,0,1,2.9-2.9h49a2.9,2.9,0,0,1,2.9,2.9v13A2.9,2.9,0,0,1,252,286.2Zm-46.1-5.8h43.2v-7.2H205.9Z" fill="#01b6ad"/>
    <path d="M252,273.2H203a2.9,2.9,0,0,1-2.9-2.9v-13a2.9,2.9,0,0,1,2.9-2.9h49a2.9,2.9,0,0,1,2.9,2.9v13A2.9,2.9,0,0,1,252,273.2Zm-46.1-5.7h43.2v-7.2H205.9Z" fill="#01b6ad"/>
    <path d="M175.9,286.9a2.79,2.79,0,0,1-2.7-1.9l-17-45.8a2.81,2.81,0,0,1,.1-2.2,2.94,2.94,0,0,1,1.6-1.5l12.2-4.5a2.85,2.85,0,0,1,3.7,1.7l17,45.8a2.81,2.81,0,0,1-.1,2.2,2.94,2.94,0,0,1-1.6,1.5l-12.2,4.5A3.55,3.55,0,0,1,175.9,286.9Zm-13.3-47,15,40.5,6.8-2.5-15-40.5Z" fill="#01b6ad"/>
    <rect width="400" height="400" fill="none"/>
  </g>
</svg>
