<svg xmlns="http://www.w3.org/2000/svg" viewBox="0 0 400 400">
  <title>trash</title>
  <g>
    <path d="M240.9,336H155c-21.5,0-38.9-19.1-38.9-42.7l-9-175.5a2.65,2.65,0,0,1,.8-2.1,2.72,2.72,0,0,1,2.1-.9H288a2.72,2.72,0,0,1,2.1.9,3.44,3.44,0,0,1,.8,2.1l-11,175.5C279.8,316.9,262.4,336,240.9,336ZM113,120.6l8.8,172.5v.1c0,20.4,14.9,37,33.2,37h85.9c18.3,0,33.2-16.6,33.2-37V293l10.8-172.5H113Z" fill="#01b6ad"/>
    <path d="M306,119.6H88a2.9,2.9,0,0,1,0-5.8H306a2.9,2.9,0,0,1,0,5.8Z" fill="#01b6ad"/>
    <path d="M199,298.1a2.9,2.9,0,0,1-2.9-2.9V137.7a2.9,2.9,0,0,1,5.8,0V295.3A2.88,2.88,0,0,1,199,298.1Z" fill="#01b6ad"/>
    <path d="M154,298.1a2.9,2.9,0,0,1-2.9-2.9V137.7a2.9,2.9,0,0,1,5.8,0V295.3A2.88,2.88,0,0,1,154,298.1Z" fill="#01b6ad"/>
    <path d="M240,298.1a2.9,2.9,0,0,1-2.9-2.9V137.7a2.9,2.9,0,0,1,5.8,0V295.3A2.88,2.88,0,0,1,240,298.1Z" fill="#01b6ad"/>
    <path d="M240,120.6a2.9,2.9,0,0,1-2.9-2.9V103.3c0-7-5.3-12.6-11.8-12.6H168.7c-6.5,0-11.8,5.7-11.8,12.6v13.4a2.9,2.9,0,1,1-5.8,0V103.3c0-10.1,7.9-18.4,17.6-18.4h56.6c9.7,0,17.6,8.2,17.6,18.4v14.4A2.9,2.9,0,0,1,240,120.6Z" fill="#01b6ad"/>
    <rect width="400" height="400" fill="none"/>
  </g>
</svg>
